<svg width="1745" height="629" viewBox="0 0 1745 629" fill="none" xmlns="http://www.w3.org/2000/svg">
<path fill-rule="evenodd" clip-rule="evenodd" d="M289.638 0.296338C288.81 0.529817 285.959 0.625719 276.849 0.726758C267.892 0.825875 264.842 0.92692 263.923 1.15484C262.927 1.40178 258.276 1.45305 236.856 1.45305C212.086 1.45305 210.906 1.47057 208.965 1.86789C205.203 2.63796 204.386 2.77297 202.355 2.96095C201.241 3.06391 199.803 3.29439 199.158 3.47297C198.513 3.65155 197.218 3.80001 196.28 3.80279C195.343 3.80557 194.048 3.9521 193.403 4.12833C192.476 4.38189 190.182 4.47461 182.426 4.57201C175.395 4.66002 172.148 4.78007 170.946 4.99646C170.024 5.16244 168.522 5.29808 167.608 5.29808C166.322 5.29808 165.085 5.52152 162.143 6.28518C160.052 6.82819 157.765 7.36073 157.062 7.46882C156.359 7.57669 155.255 7.77664 154.611 7.91293C153.926 8.05797 150.249 8.2139 145.765 8.28824C137.171 8.43072 136.423 8.54287 132.124 10.3329C130.914 10.8369 129.616 11.2017 128.607 11.3213C127.728 11.4258 126.481 11.62 125.836 11.753C125.191 11.8861 122.266 12.0604 119.335 12.1403C113.41 12.302 112.719 12.4345 108.678 14.182C106.76 15.0117 106.76 15.0117 101.218 15.135C94.8177 15.2772 93.311 15.5569 90.3476 17.153C87.4052 18.7376 86.3141 18.9693 81.7926 18.9693C77.3631 18.9693 76.9673 19.0537 73.0861 20.8273C71.0943 21.7375 70.7935 21.8119 68.3969 21.9862C66.9885 22.0885 65.3085 22.2686 64.6637 22.3863C64.019 22.5038 62.8081 22.686 61.9728 22.7906C60.9782 22.9154 59.801 23.2755 58.5625 23.8337C57.5221 24.3026 56.0953 24.8016 55.3919 24.9424C54.6886 25.0831 53.6401 25.3348 53.0618 25.5016C52.4838 25.6684 51.4927 25.8049 50.8594 25.8049C49.2817 25.8049 46.6647 26.4973 43.9702 27.6273C42.6615 28.176 41.0933 28.6618 40.2371 28.7833C38.5831 29.0185 34.735 30.2316 31.5197 31.5315C30.3474 32.0055 28.2373 32.7542 26.8306 33.1951C25.4238 33.6362 23.5969 34.352 22.771 34.7859C21.9449 35.2197 20.0266 35.9697 18.5081 36.4527C15.717 37.3403 8.82112 40.565 6.41344 42.1083C5.75845 42.5283 4.82849 43.0734 4.34721 43.3195C2.59239 44.2167 1.87453 45.1 0.927742 47.5266C-3.01202 57.6258 6.32647 65.556 15.1976 59.644C16.2867 58.9182 16.9613 58.6306 17.903 58.4907C20.8224 58.0569 22.7429 57.416 24.4271 56.3142C26.1189 55.2073 27.327 54.6685 28.1546 54.6521C29.0924 54.6335 31.8836 53.5968 33.2908 52.7447C34.9914 51.7151 36.2496 51.2947 38.5194 50.998C40.4746 50.7423 42.3125 50.0838 44.0865 49.0033C45.664 48.0425 46.481 47.8099 48.2825 47.8084C49.9734 47.8069 51.8603 47.26 54.6035 45.9766C56.5553 45.0634 57.5828 44.806 62.2202 44.0682C64.36 43.7277 65.3309 43.4254 66.9874 42.5842C67.6693 42.2378 68.7066 41.9443 69.6364 41.8342C70.477 41.7349 71.7363 41.5002 72.435 41.3126C73.1337 41.1248 74.2846 40.9708 74.9927 40.9702C75.7585 40.9693 77.2731 40.7006 78.7313 40.3069C80.0794 39.9431 81.5661 39.5646 82.035 39.4661C82.5039 39.3677 84.0094 38.9932 85.3805 38.6339C86.7517 38.2748 88.4163 37.9809 89.0799 37.9809C89.7434 37.9809 90.8274 37.8437 91.4892 37.6761C92.1508 37.5084 93.3636 37.3104 94.1842 37.236C95.6863 37.0997 97.2582 36.8161 100.792 36.0436C101.847 35.8129 103.238 35.6258 103.884 35.6277C104.529 35.6296 105.392 35.5286 105.802 35.4032C106.212 35.278 107.48 35.0962 108.621 34.9993C110.609 34.8303 112.929 34.4595 116.138 33.7973C116.959 33.6281 117.876 33.4907 118.178 33.4922C118.478 33.4937 119.438 33.3051 120.309 33.0729C121.366 32.7912 122.592 32.6489 123.994 32.6457C125.149 32.6429 126.636 32.5062 127.298 32.3421C127.959 32.1779 130.035 31.9835 131.911 31.9102C133.787 31.8367 135.849 31.6357 136.493 31.4635C137.138 31.2912 138.097 31.148 138.625 31.1453C139.152 31.1425 140.112 30.9964 140.756 30.8208C141.401 30.645 142.984 30.4438 144.273 30.3737C145.563 30.3036 147.159 30.112 147.821 29.9482C148.483 29.7841 149.442 29.6466 149.952 29.6425C150.463 29.6384 151.504 29.4883 152.266 29.3088C153.323 29.06 155.497 28.9581 161.431 28.8793C166.925 28.8064 169.618 28.6885 170.597 28.4783C171.359 28.3147 172.641 28.1231 173.447 28.0524C174.253 27.9817 175.5 27.7849 176.218 27.6151C176.936 27.4455 178.085 27.3051 178.772 27.3034C179.458 27.3017 180.561 27.1648 181.223 26.9992C181.885 26.8337 183.794 26.6325 185.466 26.5519C187.138 26.4716 189.008 26.2717 189.622 26.1078C190.512 25.8705 193.114 25.8094 202.431 25.8075C211.828 25.8054 214.359 25.7453 215.326 25.5012C216.251 25.2673 219.162 25.1645 227.932 25.0552C236.658 24.9466 239.618 24.8424 240.539 24.6115C241.201 24.4455 242.543 24.3062 243.523 24.3022C244.502 24.2981 245.927 24.1571 246.689 23.9892C247.852 23.7329 252.632 23.6838 276.423 23.6838C300.214 23.6838 304.994 23.7329 306.157 23.9892C306.919 24.1571 308.2 24.2981 309.003 24.3022C309.807 24.3062 311.006 24.4446 311.668 24.6096C312.603 24.843 315.912 24.9419 326.561 25.0549C337.264 25.1686 340.496 25.2658 341.374 25.5001C342.279 25.7415 345.004 25.8004 355.362 25.8024C365.747 25.8045 368.458 25.8633 369.43 26.1076C370.091 26.274 371.448 26.4744 372.444 26.5526C373.441 26.6308 374.798 26.8311 375.459 26.9975C376.254 27.1975 377.85 27.3002 380.157 27.3002C382.688 27.3002 384.002 27.3944 384.922 27.6418C385.621 27.8298 387.439 28.0611 388.963 28.156C390.487 28.2508 392.069 28.4334 392.479 28.5618C392.967 28.7152 396.241 28.7955 401.991 28.7955C409.79 28.7955 411.027 28.8425 413.183 29.2206C414.516 29.4543 416.504 29.6466 417.6 29.6478C418.697 29.6489 420.136 29.7903 420.798 29.9616C421.459 30.1332 423.008 30.3733 424.239 30.4955C425.47 30.6176 426.86 30.8116 427.329 30.9263C427.798 31.0412 429.045 31.1384 430.1 31.1427C431.155 31.147 432.546 31.2914 433.191 31.4635C433.997 31.6791 436.093 31.8186 439.905 31.9104C443.5 31.9969 445.869 32.1486 446.649 32.3421C447.385 32.5246 448.99 32.6406 450.775 32.6406C452.69 32.6406 454.126 32.7516 454.939 32.9629C455.621 33.1402 457.218 33.3743 458.486 33.4833C459.755 33.5922 461.128 33.7836 461.537 33.9086C461.947 34.0335 463.05 34.1373 463.989 34.1391C464.927 34.1408 466.271 34.2779 466.974 34.4437C467.747 34.6259 470.193 34.8019 473.155 34.8886C476.164 34.9766 478.522 35.148 479.261 35.3317C479.922 35.4964 481.09 35.6311 481.856 35.6311C482.622 35.6311 484.222 35.8234 485.411 36.0584C486.601 36.2933 488.31 36.4867 489.21 36.4882C490.11 36.4894 491.374 36.6315 492.019 36.8034C492.663 36.9754 494.438 37.1762 495.962 37.2497C497.486 37.3232 499.338 37.5178 500.078 37.682C500.856 37.8549 502.609 37.9809 504.236 37.9809C505.783 37.9809 507.383 38.0806 507.793 38.2028C508.202 38.3248 509.353 38.5207 510.349 38.6382C511.345 38.7557 512.702 38.9921 513.364 39.1639C514.026 39.3356 515.225 39.4762 516.03 39.4762C516.834 39.4762 517.827 39.5742 518.237 39.6941C518.646 39.8139 519.893 40.0523 521.006 40.2238C522.12 40.3954 523.366 40.6337 523.776 40.7536C524.196 40.8766 526.889 40.971 529.957 40.9706C536.082 40.9698 538.267 41.2472 542.717 42.5904C544.326 43.0764 545.576 43.3221 546.447 43.3238C547.167 43.3251 548.283 43.4752 548.928 43.6572C549.667 43.8657 551.716 44.0569 554.47 44.1746C562.06 44.4986 564.33 44.7477 566.939 45.5428C570.256 46.5536 572.993 47.1658 574.208 47.1688C574.782 47.1701 575.779 47.3132 576.424 47.4867C577.287 47.7189 578.826 47.8026 582.26 47.8045C587.2 47.8073 590.232 48.3025 592.581 49.4899C594.278 50.3486 598.717 50.9613 603.495 50.9963C604.609 51.0047 605.856 51.1164 606.266 51.2448C606.675 51.3734 608.161 51.5513 609.568 51.6404C611.955 51.7918 612.259 51.8632 614.125 52.7125C615.298 53.2463 616.708 53.7094 617.535 53.8327C618.311 53.9482 619.541 54.1779 620.269 54.3428C621.183 54.5502 623.014 54.6427 626.198 54.6427C631.49 54.6427 633.608 55.0274 636.875 56.5817C639.265 57.7187 639.946 57.8358 644.205 57.8418C646.281 57.8446 648.267 57.9501 648.681 58.0795C649.091 58.2073 650.542 58.3841 651.907 58.4724C654.321 58.6283 654.447 58.662 656.596 59.7207C657.811 60.3192 659.092 60.9289 659.444 61.0754C659.856 61.247 661.977 61.3967 665.412 61.4963C672.344 61.6973 674.574 62.0837 677.8 63.6429C680.118 64.763 682.479 65.1582 687.792 65.3148C692.441 65.4517 692.495 65.4588 694.115 66.1357C695.014 66.5115 695.877 66.8204 696.034 66.8225C696.19 66.8244 697.229 67.1211 698.343 67.4815C699.869 67.9756 701.015 68.1821 703 68.3214C704.448 68.4231 706.126 68.6049 706.73 68.7258C707.334 68.8465 708.751 69.0364 709.88 69.1475C711.458 69.3027 712.455 69.5542 714.195 70.236C717.949 71.707 720.404 72.1586 724.662 72.1615C728.739 72.1645 729.759 72.3664 734.369 74.0824C736.679 74.9424 736.993 75.003 740.012 75.175C741.771 75.2752 743.929 75.4952 744.808 75.6637C745.687 75.8323 746.772 76.0207 747.218 76.0824C747.664 76.1441 749.049 76.5942 750.296 77.0828C752.213 77.834 752.99 78.015 755.346 78.2587C756.877 78.4172 758.465 78.6475 758.874 78.7707C759.284 78.8938 760.09 78.9946 760.665 78.9946C761.24 78.9946 762.92 79.3165 764.396 79.7102C769.51 81.0728 773.577 81.9211 775.714 82.0713C776.593 82.1332 777.696 82.327 778.165 82.5023C778.634 82.6775 779.353 82.8245 779.764 82.8287C780.494 82.8364 783.385 83.4159 785.746 84.0275C786.398 84.1967 787.749 84.3349 788.747 84.3349C790.272 84.3349 791.101 84.4919 793.955 85.3218C799.835 87.0316 801.095 87.3167 802.792 87.3212C803.676 87.3236 804.923 87.4588 805.563 87.6218C806.203 87.7848 807.36 88.0255 808.134 88.1567C808.909 88.288 810.108 88.5916 810.799 88.8313C812.373 89.3777 815.943 90.2244 817.49 90.4184C818.135 90.4994 819.204 90.7017 819.866 90.8681C820.527 91.0345 821.87 91.1737 822.85 91.1776C824.098 91.1825 824.982 91.3141 825.803 91.618C829.224 92.8829 830.69 93.3189 832.167 93.5098C833.063 93.6256 834.131 93.8196 834.54 93.9407C834.95 94.062 836.259 94.1611 837.449 94.1611C839.8 94.1611 841.28 94.5089 844.022 95.7057C846.312 96.7059 847.864 97.0767 850.468 97.2455C851.783 97.3307 853.366 97.5356 853.985 97.7007C854.604 97.866 855.446 98.0064 855.856 98.013C856.615 98.0252 857.066 98.1711 859.42 99.1661C862.309 100.388 865.298 100.994 868.443 100.995C871.78 100.997 873.387 101.375 876.614 102.917C877.784 103.476 879.049 103.903 879.918 104.032C880.693 104.148 881.922 104.377 882.65 104.542C883.424 104.717 885.148 104.842 886.806 104.843C890.079 104.844 890.798 105 892.346 106.046C894.751 107.669 894.8 107.682 899.231 107.854C904.195 108.046 905.625 108.352 908.058 109.744C910.948 111.398 912.154 111.677 916.389 111.677C920.474 111.677 921.35 111.866 925.008 113.533C926.936 114.412 927.377 114.525 929.911 114.79C938.313 115.668 938.222 115.653 940.09 116.487C944.541 118.475 944.124 118.366 947.836 118.512C949.716 118.585 951.353 118.707 951.474 118.781C951.595 118.856 952.437 119.117 953.347 119.361C954.256 119.605 955.689 120.153 956.53 120.578C957.991 121.316 958.215 121.362 961.576 121.625C966.37 121.999 968.23 122.362 972.233 123.701C975.654 124.845 978.01 125.349 979.947 125.349C981.715 125.349 983.419 125.737 989.818 127.601C991.239 128.015 992.849 128.345 993.441 128.344C994.027 128.343 995.304 128.534 996.279 128.768C997.253 129.002 998.286 129.194 998.574 129.194C998.862 129.194 1000.14 129.53 1001.41 129.941C1002.67 130.353 1003.98 130.689 1004.3 130.689C1004.62 130.689 1005.43 130.825 1006.09 130.991C1006.75 131.158 1007.82 131.355 1008.47 131.43C1009.84 131.589 1011.65 131.95 1016.03 132.941C1017.79 133.338 1020.24 133.863 1021.47 134.108C1023.44 134.5 1026.17 135.121 1028.82 135.782C1029.29 135.899 1030.44 136.148 1031.38 136.336C1032.32 136.525 1033.81 136.831 1034.68 137.017C1035.56 137.203 1037.24 137.428 1038.41 137.517C1040.41 137.669 1040.71 137.757 1043.03 138.869C1044.4 139.523 1045.98 140.216 1046.55 140.409C1051.3 142.025 1050.57 146.639 1045.45 147.366C1043.82 147.597 1042.68 148.053 1040.63 149.289C1038.91 150.329 1035.95 151.188 1034.05 151.198C1032.55 151.206 1031.82 151.47 1029.7 152.764C1027.95 153.832 1026.84 154.155 1024.13 154.376C1021.34 154.604 1019.73 155.112 1017.52 156.454C1015.3 157.806 1014.42 158.031 1011.36 158.032C1008.54 158.032 1007.96 158.219 1005.11 160.041C1003.73 160.924 1001.01 161.636 998.13 161.869C996.098 162.033 995.873 162.103 993.302 163.371C990.699 164.655 990.528 164.708 988.399 164.872C987.187 164.966 985.906 165.138 985.555 165.255C985.203 165.372 984.42 165.62 983.814 165.807C983.208 165.993 982.153 166.48 981.469 166.888C980.061 167.729 976.546 168.712 974.949 168.712C973.708 168.712 971.636 169.38 970.263 170.223C968.864 171.08 966.912 171.703 965.618 171.703C964.37 171.703 960.831 172.553 959.307 173.219C958.738 173.467 957.745 173.859 957.1 174.089C955.978 174.49 955.258 174.661 951.46 175.429C950.526 175.617 949.252 176.006 948.628 176.292C948.003 176.579 947.137 176.873 946.701 176.945C945.819 177.093 942.5 177.988 936.745 179.631C934.635 180.233 931.757 181.044 930.35 181.433C928.944 181.822 926.565 182.531 925.065 183.009C923.564 183.487 921.994 183.879 921.576 183.879C921.157 183.879 918.823 184.551 916.389 185.374C913.955 186.196 911.689 186.869 911.352 186.87C910.595 186.87 906.058 188.008 904.95 188.475C903.395 189.13 897.556 190.714 896.69 190.716C895.471 190.717 894.393 191.045 892.334 192.04C890.115 193.113 888.898 193.453 886.372 193.709C883.933 193.956 881.843 194.562 879.689 195.647C877.427 196.787 875.33 197.348 872.675 197.525C870.86 197.646 870.213 197.782 869.372 198.222C865.029 200.49 865.404 200.358 862.728 200.566C858.085 200.926 856.309 201.399 854.227 202.828C852.328 204.132 851.628 204.365 849.569 204.377C847.426 204.391 846.8 204.568 843.786 206.014C842.078 206.834 840.836 207.275 839.644 207.485C838.707 207.65 837.843 207.846 837.725 207.919C837.606 207.993 836.506 208.124 835.281 208.212C833.091 208.368 833.006 208.395 830.365 209.736C827.677 211.101 827.677 211.101 825.195 211.255C821.996 211.454 819.842 212.018 817.597 213.244C815.159 214.576 814.197 214.847 811.201 215.043C808.642 215.211 808.642 215.211 806.043 216.564C803.523 217.876 803.382 217.922 801.355 218.071C798.735 218.264 795.542 219.096 793.192 220.197C791.103 221.176 788.289 221.898 786.553 221.9C785.224 221.902 783.272 222.442 781.149 223.397C779.129 224.306 777.091 224.892 775.957 224.892C774.768 224.892 769.904 226.103 767.459 227.007C766.494 227.363 765.056 227.765 764.262 227.898C763.468 228.032 761.256 228.612 759.345 229.187C757.435 229.762 755.707 230.233 755.505 230.233C754.754 230.233 750.581 231.276 747.935 232.125C746.431 232.608 744.561 233.113 743.779 233.248C742.997 233.383 742.117 233.584 741.824 233.694C741.531 233.804 740.572 233.977 739.693 234.078C738.696 234.192 737.545 234.507 736.636 234.917C734.38 235.931 730.893 237.068 730.037 237.068C728.593 237.068 723.622 238.361 721.362 239.324C720.349 239.756 719.419 239.958 717.901 240.079C716.76 240.17 715.743 240.296 715.641 240.359C715.539 240.422 714.603 240.622 713.56 240.804C712.275 241.028 711.094 241.414 709.896 242C707.068 243.384 705.913 243.718 703.348 243.891C701.091 244.044 700.903 244.095 698.446 245.242C695.508 246.614 694.61 246.892 693.101 246.893C690.878 246.896 685.772 247.944 683.529 248.859C678.658 250.845 680.299 250.731 656.673 250.735C633.192 250.739 634.483 250.826 630.208 248.943C629.254 248.522 628.009 248.086 627.44 247.974C623.918 247.277 622.351 247.118 617.987 247.013C612.773 246.888 610.856 246.559 608.08 245.311C605.363 244.09 604.096 243.904 598.496 243.904C595.601 243.904 593.042 243.808 592.621 243.684C592.212 243.563 591.165 243.371 590.296 243.257C589.426 243.144 587.652 242.721 586.353 242.317C582.76 241.201 581.487 240.914 580.123 240.91C579.437 240.908 578.3 240.771 577.596 240.606C576.809 240.42 574.351 240.249 571.202 240.161C568.003 240.071 565.636 239.905 564.883 239.718C564.222 239.553 563.409 239.418 563.078 239.418C562.747 239.418 561.682 239.226 560.711 238.991C559.74 238.756 558.152 238.371 557.181 238.136C556.21 237.901 554.939 237.708 554.357 237.707C553.774 237.705 552.77 237.562 552.125 237.389C551.242 237.151 549.648 237.073 545.655 237.071C541.83 237.069 540.023 236.985 539.154 236.769C538.493 236.604 537.261 236.406 536.416 236.33C535.572 236.253 534.565 236.091 534.178 235.969C533.792 235.847 532.564 235.677 531.45 235.59C529.585 235.445 528.082 235.198 524.097 234.379C523.132 234.18 521.212 234.068 518.662 234.061C516.493 234.056 513.903 233.958 512.907 233.845C511.91 233.731 508.457 233.518 505.234 233.37C502.01 233.222 499.228 233.012 499.052 232.903C498.877 232.794 496.862 232.634 494.576 232.547C492.29 232.46 489.668 232.24 488.749 232.059C487.724 231.856 485.913 231.727 484.06 231.725C482.049 231.724 480.65 231.616 479.869 231.403C478.903 231.139 476.185 231.063 464.421 230.971C452.835 230.881 449.916 230.801 448.937 230.546C447.179 230.09 412.875 230.078 411.054 230.533C410.112 230.769 406.721 230.866 395.403 230.982C384.13 231.097 380.711 231.195 379.844 231.426C379.215 231.594 377.698 231.724 376.348 231.725C374.709 231.727 373.41 231.861 372.191 232.154C371.116 232.412 369.678 232.58 368.532 232.581C367.494 232.582 366.103 232.717 365.441 232.881C364.78 233.045 362.752 233.235 360.935 233.302C359.118 233.37 357.055 233.526 356.352 233.65C355.649 233.773 352.723 233.963 349.851 234.071C346.676 234.191 344.044 234.397 343.137 234.597C341.647 234.925 339.794 235.307 337.382 235.782C336.679 235.92 335.384 236.131 334.505 236.25C333.626 236.369 332.311 236.602 331.583 236.767C330.695 236.97 328.922 237.068 326.177 237.068C321.578 237.068 320.384 237.294 315.823 239.028C313.619 239.866 313.354 239.916 310.206 240.083C307.258 240.241 305.076 240.533 302.426 241.125C301.958 241.23 300.423 241.694 299.016 242.158C295.388 243.352 292.583 243.904 290.138 243.904C287.797 243.904 286.202 244.309 283.457 245.602C281.172 246.678 280.588 246.838 278.341 247.003C275.038 247.245 272.963 247.815 270.967 249.031C268.757 250.376 267.55 250.739 265.297 250.739C263.355 250.739 261.121 251.368 259.69 252.317C257.855 253.534 254.399 254.585 252.232 254.585C251.019 254.585 249.593 255.123 247.634 256.32C246.42 257.062 245.55 257.431 244.674 257.573C241.757 258.049 239.633 258.704 238.319 259.532C236.357 260.767 235.438 261.156 233.899 261.4C232.954 261.551 231.704 262.022 229.955 262.887C228.547 263.583 226.964 264.265 226.438 264.4C224.156 264.99 222.728 265.574 221.484 266.424C219.677 267.66 219.497 267.745 217.611 268.251C215.892 268.713 213.523 269.81 212.032 270.835C211.552 271.165 210.497 271.7 209.688 272.024C208.879 272.348 207.401 273.108 206.405 273.714C205.408 274.32 204.133 275.018 203.572 275.266C203.009 275.514 201.427 276.382 200.055 277.195C198.682 278.008 196.779 279.054 195.825 279.52C194.871 279.985 193.624 280.758 193.054 281.236C192.484 281.715 191.25 282.559 190.312 283.111C189.375 283.664 188.272 284.379 187.861 284.702C187.451 285.024 186.54 285.607 185.836 285.997C185.133 286.387 184.026 287.145 183.377 287.681C182.727 288.217 181.336 289.114 180.286 289.675C178.744 290.497 177.863 291.191 175.712 293.273C174.247 294.691 172.616 296.199 172.089 296.623C171.561 297.048 170.401 298.073 169.511 298.9C168.621 299.728 166.582 301.602 164.981 303.065C163.381 304.528 162.071 305.789 162.071 305.868C162.071 305.946 160.138 307.969 157.775 310.363C155.006 313.169 152.7 315.742 151.285 317.6C150.078 319.186 148.264 321.542 147.253 322.834C146.241 324.126 145.064 325.808 144.637 326.572C144.209 327.336 143.263 328.806 142.534 329.839C141.703 331.017 140.918 332.469 140.429 333.734C140 334.843 139.379 336.125 139.048 336.582C138.089 337.909 137.611 338.995 137.35 340.436C137.216 341.175 137.018 342.012 136.911 342.296C136.803 342.58 136.619 343.409 136.502 344.138C136.385 344.866 135.897 346.282 135.418 347.282C133.74 350.787 132.913 358.56 133.804 362.444C133.982 363.216 134.188 364.412 134.263 365.102C134.36 365.995 134.675 366.881 135.356 368.175C135.969 369.34 136.386 370.463 136.517 371.3C136.844 373.401 137.739 375.819 138.721 377.256C139.224 377.991 139.972 379.264 140.385 380.085C141.064 381.433 141.854 382.517 145.237 386.738C145.833 387.481 147.198 388.726 148.373 389.598C149.518 390.447 150.79 391.458 151.2 391.843C151.611 392.229 152.81 393.018 153.865 393.598C154.92 394.177 156.347 394.998 157.036 395.422C157.725 395.847 158.78 396.355 159.381 396.552C160.942 397.064 161.833 397.547 163.009 398.521C164.464 399.726 166.2 400.314 168.819 400.488C170.941 400.629 171.037 400.659 173.609 401.975C176.943 403.68 178.673 404.004 185.517 404.205C188.21 404.285 190.967 404.479 191.804 404.65C192.625 404.816 194.208 405.058 195.321 405.187C196.435 405.316 197.874 405.505 198.519 405.607C200.551 405.927 216.035 405.861 218.341 405.523C219.455 405.359 221.133 405.163 222.071 405.088C223.009 405.012 224.448 404.808 225.268 404.634C226.313 404.413 229.316 404.255 235.286 404.106C247.627 403.797 250.342 403.554 255.322 402.314C257.836 401.688 260.193 401.239 261.539 401.131C262.731 401.035 263.834 400.873 263.99 400.773C264.146 400.671 268.35 400.536 273.332 400.47C283.051 400.343 284.215 400.223 287.72 398.984C290.099 398.143 292.185 397.689 295.073 397.384C296.656 397.217 298.814 396.982 299.869 396.862C300.924 396.743 304.467 396.643 307.743 396.641C314.182 396.637 315.998 396.339 322.123 394.283C324.017 393.647 324.017 393.647 330.443 393.647C335.227 393.647 337.206 393.569 338.191 393.344C338.919 393.177 340.329 392.942 341.325 392.82C342.322 392.699 344.511 392.163 346.19 391.628C347.869 391.094 349.5 390.656 349.814 390.656C350.128 390.656 351.056 390.464 351.876 390.229C353.192 389.852 354.006 389.802 358.804 389.802C365.048 389.802 367.109 389.478 371.366 387.83C373.587 386.97 373.667 386.956 377.347 386.793C379.398 386.703 381.604 386.534 382.249 386.417C382.894 386.3 385.144 386.146 387.249 386.073C390.714 385.954 391.239 385.884 392.791 385.336C396.465 384.04 397.126 383.842 398.981 383.476C400.262 383.224 402.492 383.054 405.695 382.962C411.182 382.804 411.583 382.738 419.151 380.742C421.783 380.048 422.323 379.975 424.875 379.975C426.586 379.975 428.167 379.857 428.897 379.675C429.559 379.51 430.676 379.311 431.379 379.233C432.082 379.155 434.001 378.773 435.642 378.385C439.325 377.513 440.742 377.23 442.753 376.962C443.616 376.847 444.859 376.613 445.515 376.442C446.171 376.27 447.605 376.13 448.702 376.13C450.224 376.13 451.435 375.957 453.826 375.396C458.871 374.213 460.081 373.989 461.41 373.991C462.101 373.993 463.492 373.808 464.501 373.581C465.509 373.354 467.246 373.009 468.36 372.814C470.308 372.473 472.198 372.08 475.606 371.307C476.486 371.107 478.308 370.866 479.656 370.77C481.004 370.674 482.875 370.41 483.813 370.183C485.459 369.784 487.449 369.321 491.486 368.398C492.541 368.157 494.699 367.892 496.281 367.81C499.218 367.657 501.388 367.187 507.152 365.455C509.235 364.829 511.246 364.546 516.424 364.15C519.342 363.926 519.457 363.898 521.646 362.878C522.996 362.249 524.433 361.748 525.269 361.616C526.031 361.495 526.99 361.299 527.399 361.18C527.809 361.061 529.506 360.964 531.172 360.964C534.631 360.964 536.319 360.561 539.334 359.017C541.078 358.124 542.968 357.765 545.946 357.761C546.708 357.76 547.667 357.661 548.077 357.542C548.487 357.421 549.607 357.242 550.566 357.142C551.979 356.996 552.689 356.777 554.296 355.995C557.612 354.382 558.712 354.129 562.432 354.124C566.122 354.119 567.388 353.802 569.991 352.233C571.945 351.056 574.586 350.505 579.2 350.313C582.722 350.166 582.722 350.166 585.439 348.826C588.312 347.409 589.708 347.085 592.943 347.081C595.428 347.078 598.355 346.351 600.646 345.17C603.338 343.781 604.694 343.448 607.656 343.448C610.509 343.448 611.613 343.159 614.299 341.711C615.994 340.797 616.508 340.626 618.112 340.443C619.131 340.327 620.035 340.188 620.121 340.135C620.208 340.081 621.225 339.934 622.383 339.807C625.082 339.512 626.577 339.124 629.006 338.089C631.61 336.979 633.1 336.612 635.001 336.612C636.966 336.612 640.002 335.821 642.49 334.661C643.604 334.142 644.856 333.741 645.765 333.612C646.575 333.496 647.311 333.357 647.4 333.301C647.49 333.246 648.592 333.056 649.849 332.879C651.47 332.651 652.672 332.33 653.978 331.777C657.662 330.215 659.129 329.786 660.795 329.781C661.95 329.778 662.843 329.613 664.205 329.154C666.399 328.414 671.181 327.078 674.929 326.157C676.413 325.793 678.172 325.307 678.839 325.077C679.506 324.847 680.546 324.599 681.151 324.526C682.085 324.412 690.493 322.348 692.799 321.666C693.209 321.545 694.361 321.445 695.359 321.445C696.356 321.445 697.508 321.344 697.918 321.219C702.517 319.822 707.89 318.455 708.78 318.455C709.107 318.455 710.465 318.264 711.798 318.03C713.504 317.731 715.2 317.603 717.526 317.6C719.753 317.597 721.211 317.493 722.002 317.28C722.646 317.107 723.516 316.963 723.934 316.962C724.353 316.961 725.408 316.77 726.279 316.537C727.15 316.305 728.281 316.113 728.792 316.11C729.302 316.107 730.261 315.968 730.923 315.801C731.585 315.633 732.989 315.432 734.044 315.354C735.099 315.276 736.504 315.077 737.166 314.911C738.928 314.47 767.936 314.467 769.715 314.908C770.377 315.072 772.069 315.265 773.476 315.337C775.425 315.437 776.668 315.642 778.698 316.198C782.802 317.321 783.616 317.443 788.076 317.607C790.362 317.691 793 317.913 793.938 318.1C794.876 318.287 796.006 318.443 796.45 318.447C796.894 318.451 799.901 319.128 803.133 319.95C806.365 320.773 809.311 321.446 809.68 321.447C810.048 321.448 811.549 321.784 813.014 322.193C814.48 322.602 815.83 322.938 816.015 322.939C816.2 322.94 817.879 323.384 819.745 323.926C823.674 325.066 828.942 326.474 830.866 326.898C831.599 327.059 833.038 327.543 834.063 327.972C836.371 328.939 839.103 329.775 839.966 329.779C840.608 329.782 842.198 330.312 845.945 331.771C847 332.182 849.157 332.823 850.738 333.195C852.47 333.602 854.291 334.194 855.32 334.684C857.014 335.49 860.683 336.612 861.626 336.612C862.554 336.612 864.917 337.304 866.514 338.043C868.982 339.186 873.796 340.457 875.654 340.457C876.013 340.457 877.254 340.961 878.49 341.61C881.281 343.073 882.558 343.448 884.765 343.448C886.894 343.448 889.416 344.173 891.147 345.283C892.615 346.223 893.186 346.441 894.755 346.658C899.462 347.311 900.54 347.549 901.682 348.189C902.327 348.55 903.382 349.142 904.027 349.505C905.127 350.124 905.382 350.174 908.183 350.315C911.745 350.495 913.422 350.925 915.521 352.196C918.197 353.817 919.173 354.117 921.778 354.123C924.421 354.129 925.839 354.511 928.106 355.827C930.13 357.001 932.543 357.625 936.34 357.956C938.235 358.121 938.724 358.258 940.804 359.208C944.112 360.719 944.949 360.964 946.804 360.964C948.54 360.964 951.148 361.717 954.257 363.116C955.857 363.836 958.503 364.445 961.469 364.776C962.718 364.915 964.132 365.265 965.519 365.777C968.879 367.017 971.575 367.799 972.491 367.799C973.582 367.799 976.32 368.504 978.308 369.295C979.169 369.638 980.625 370.016 981.542 370.136C982.459 370.255 983.834 370.551 984.596 370.794C985.358 371.037 986.7 371.377 987.58 371.552C988.459 371.726 989.946 372.099 990.883 372.381C991.821 372.662 993.644 373.144 994.933 373.452C996.223 373.759 998.716 374.479 1000.47 375.053C1002.23 375.626 1004.34 376.202 1005.16 376.333C1005.98 376.464 1007.5 376.706 1008.52 376.869C1009.58 377.038 1011.38 377.557 1012.68 378.064C1013.93 378.556 1015.73 379.093 1016.67 379.255C1017.61 379.418 1018.51 379.601 1018.68 379.661C1018.84 379.722 1019.63 379.865 1020.42 379.978C1021.22 380.091 1022.43 380.435 1023.11 380.742C1025.68 381.899 1028.77 382.785 1030.85 382.959C1034.79 383.287 1036.71 384.146 1037.48 385.921C1038.44 388.132 1037.83 389.218 1034.97 390.4C1034.03 390.788 1032.65 391.487 1031.9 391.953C1030.45 392.849 1028.24 393.647 1027.2 393.647C1026.27 393.647 1025.23 394.149 1024.2 395.095C1022.97 396.223 1022.72 396.334 1019.87 397.057C1017.69 397.608 1017.22 397.811 1015.92 398.783C1014.44 399.881 1013 400.482 1011.84 400.482C1010.8 400.482 1008.25 401.505 1007.1 402.377C1005.66 403.48 1004.97 403.81 1003.22 404.243C1001.73 404.612 1000.18 405.335 998.435 406.479C997.899 406.831 996.46 407.405 995.238 407.755C993.666 408.204 992.66 408.64 991.803 409.241C990.593 410.089 989.547 410.569 987.113 411.39C986.404 411.63 984.9 412.29 983.771 412.858C982.642 413.426 980.807 414.203 979.693 414.587C978.58 414.97 976.613 415.812 975.324 416.457C974.034 417.103 972.068 417.916 970.954 418.265C969.841 418.614 967.491 419.597 965.732 420.45C963.974 421.302 961.774 422.262 960.843 422.582C959.912 422.903 958.138 423.682 956.9 424.313C955.662 424.945 953.799 425.705 952.76 426.002C951.714 426.302 950.047 427.008 949.028 427.584C948.015 428.156 946.659 428.795 946.015 429.003C943.327 429.87 942.632 430.167 941.362 430.99C939.917 431.926 937.966 432.728 935.798 433.277C934.381 433.636 933.255 434.141 931.954 435.001C931.541 435.274 930.079 435.885 928.705 436.359C927.331 436.833 925.7 437.545 925.081 437.941C923.101 439.207 921.768 439.782 920.337 439.985C918.869 440.193 917.904 440.667 917.025 441.61C916.279 442.411 915.195 442.909 913.832 443.076C911.939 443.309 910.756 443.798 909.1 445.034C907.546 446.194 906.023 446.832 904.787 446.841C903.911 446.847 902.666 447.437 900.885 448.691C899.501 449.664 898.104 450.222 895.349 450.9C894.855 451.022 893.752 451.599 892.898 452.183C891.395 453.211 889.704 453.863 886.816 454.526C886.2 454.667 885.124 455.154 884.424 455.607C882.613 456.78 882.168 456.984 880.328 457.487C879.427 457.734 877.796 458.41 876.704 458.989C875.613 459.569 874.288 460.188 873.76 460.365C871.999 460.957 868.131 462.575 866.407 463.442C865.469 463.913 863.988 464.556 863.116 464.87C862.243 465.184 860.442 465.973 859.114 466.623C857.785 467.273 855.384 468.231 853.779 468.752C852.117 469.292 850.262 470.062 849.469 470.542C848.703 471.005 846.967 471.77 845.611 472.243C844.255 472.716 842.193 473.573 841.028 474.147C839.864 474.721 838 475.503 836.887 475.885C835.773 476.266 834.046 476.964 833.05 477.435C832.053 477.906 830.279 478.623 829.107 479.028C827.934 479.433 826.104 480.236 825.038 480.812C823.853 481.454 822.289 482.077 821.01 482.418C819.684 482.772 817.859 483.508 816.02 484.431C813.039 485.927 811.888 486.35 810.776 486.356C809.926 486.36 808.189 487.189 806.752 488.277C805.723 489.056 805.352 489.198 803.622 489.477C801.372 489.84 800.524 490.219 798.949 491.566C797.712 492.624 796.353 493.188 795.019 493.195C793.927 493.201 792.642 493.78 791.034 494.992C789.444 496.19 787.857 496.785 785.657 497.009C783.753 497.202 782.703 497.64 781.279 498.832C780.78 499.249 779.972 499.698 779.482 499.829C776.427 500.647 774.744 501.26 773.05 502.172C771.995 502.74 770.3 503.445 769.284 503.739C767.499 504.256 765.565 505.122 763.999 506.106C763.211 506.601 761.086 507.293 759.089 507.705C758.444 507.838 757.293 508.315 756.531 508.766C754.303 510.082 753.397 510.492 752.212 510.717C751.599 510.834 750.234 511.347 749.178 511.857C741.778 515.434 730.208 517.594 724.923 516.385C724.195 516.219 722.977 515.97 722.215 515.832C721.453 515.694 720.206 515.459 719.444 515.311C718.682 515.161 717.435 514.918 716.673 514.769C715.911 514.62 714.547 514.318 713.641 514.097C712.736 513.877 711.242 513.697 710.321 513.697C708.962 513.697 708.007 513.511 705.253 512.71C698.657 510.792 698.272 510.716 695.243 510.711C693.556 510.708 692.007 510.588 691.3 510.405C690.66 510.239 689.657 510.036 689.071 509.953C688.485 509.87 687.228 509.483 686.278 509.093C683.929 508.13 682.401 507.76 679.781 507.518C678.56 507.406 677.226 507.212 676.816 507.088C676.407 506.963 674.343 506.862 672.23 506.862C668.061 506.862 667.009 506.68 663.582 505.367C662.693 505.026 661.207 504.65 660.279 504.53C659.35 504.41 658.256 504.213 657.847 504.091C657.431 503.968 654.965 503.871 652.267 503.871C648.295 503.871 647.046 503.795 645.27 503.444C644.08 503.209 642.514 503.015 641.79 503.012C640.42 503.008 637.708 502.368 635.145 501.445C633.887 500.993 633.118 500.886 630.243 500.767C628.367 500.689 626.291 500.49 625.63 500.325C624.677 500.088 622.148 500.026 613.48 500.023C604.506 500.021 602.323 499.964 601.362 499.706C600.717 499.532 599.662 499.387 599.017 499.383C598.372 499.379 597.221 499.232 596.459 499.056C592.82 498.214 582.185 497.66 579.855 498.191C579.036 498.378 577.856 498.532 577.234 498.533C576.613 498.534 575.577 498.681 574.932 498.859C574.287 499.037 572.561 499.238 571.095 499.306C569.63 499.374 567.89 499.563 567.228 499.728C566.409 499.931 564.708 500.027 561.899 500.028C558.94 500.03 557.442 500.12 556.601 500.346C555.857 500.547 554.417 500.663 552.658 500.666C548.56 500.672 546.749 500.941 544.122 501.933C540.688 503.229 537.835 503.87 535.471 503.875C532.982 503.881 530.364 504.524 527.776 505.764C526.436 506.407 525.46 506.715 524.297 506.863C523.409 506.976 522.598 507.12 522.497 507.183C522.395 507.246 521.515 507.395 520.54 507.513C519.036 507.697 518.329 507.941 515.86 509.127C513.251 510.382 512.767 510.542 511.14 510.691C509.612 510.83 509.099 510.984 507.867 511.672C505.474 513.007 504.892 513.257 503.376 513.603C501.798 513.964 496.748 515.91 494.694 516.95C493.984 517.309 492.409 518.021 491.193 518.531C489.977 519.042 488.504 519.755 487.918 520.116C487.333 520.477 486.049 521.146 485.064 521.601C484.079 522.058 482.995 522.629 482.655 522.872C482.314 523.115 480.527 524.084 478.683 525.026C476.838 525.968 474.888 527.061 474.349 527.455C473.81 527.849 472.658 528.528 471.79 528.964C470.922 529.4 469.723 530.215 469.126 530.774C468.528 531.333 467.56 532.065 466.974 532.4C465.966 532.977 464.342 534.348 461.135 537.329C460.361 538.049 459.152 538.955 458.448 539.342C456.592 540.362 451.444 545.56 450.268 547.6C449.78 548.447 448.317 550.321 447.016 551.765C445.553 553.389 444.458 554.818 444.143 555.512C443.863 556.129 443.392 557.17 443.096 557.826C442.799 558.481 442.187 559.515 441.735 560.122C440.696 561.518 440.367 562.177 439.556 564.48C439.196 565.502 438.483 567.228 437.973 568.316C436.428 571.607 435.606 574.832 435.317 578.742C435.208 580.218 434.972 581.569 434.682 582.374C434.128 583.917 434.214 586.677 434.899 589.316C435.128 590.197 435.317 591.639 435.321 592.52C435.327 594.252 436.462 598.025 437.529 599.863C437.811 600.348 438.547 601.706 439.165 602.881C441.617 607.539 445.94 611.657 451.494 614.624C452.857 615.352 454.515 616.284 455.179 616.695C459.028 619.077 470.711 622.209 476.566 622.428C478.793 622.511 480.999 622.701 481.468 622.849C482.792 623.266 506.511 623.287 507.685 622.872C508.322 622.647 510.476 622.532 516.21 622.416C520.701 622.326 524.237 622.163 524.736 622.023C525.205 621.892 526.692 621.727 528.04 621.656C529.388 621.585 531.033 621.393 531.694 621.229C532.356 621.065 533.257 620.931 533.697 620.931C534.137 620.931 535.322 620.744 536.33 620.515C539.652 619.762 541.339 619.468 543.067 619.341C544.005 619.273 545.299 619.075 545.944 618.901C546.77 618.679 548.251 618.585 550.955 618.584C553.065 618.582 555.128 618.481 555.537 618.358C555.947 618.236 557.241 618.001 558.413 617.836C561.075 617.461 562.606 617.18 564.914 616.642C565.91 616.41 567.253 616.222 567.898 616.223C568.543 616.225 569.598 616.084 570.243 615.911C571 615.707 572.434 615.595 574.293 615.593C576.526 615.591 577.505 615.495 578.662 615.163C579.482 614.928 580.585 614.736 581.114 614.736C581.642 614.736 582.41 614.635 582.82 614.511C583.229 614.388 584.429 614.2 585.486 614.094C586.544 613.989 587.978 613.753 588.675 613.572C589.372 613.39 590.569 613.24 591.335 613.238C592.102 613.237 593.257 613.094 593.902 612.92C594.546 612.747 595.368 612.604 595.728 612.603C596.088 612.601 597.095 612.41 597.966 612.178C598.837 611.945 600.03 611.752 600.616 611.748C601.202 611.744 602.209 611.599 602.854 611.425C603.499 611.252 604.365 611.109 604.779 611.107C605.193 611.106 606.056 610.954 606.697 610.769C607.338 610.585 609.11 610.356 610.634 610.261C613.499 610.082 614.669 609.879 619.905 608.655C624.387 607.607 626.119 607.254 626.763 607.257C627.077 607.258 628.307 607.067 629.497 606.832C630.776 606.58 632.523 606.405 633.773 606.405C635.523 606.405 636.225 606.297 637.86 605.776C638.946 605.431 640.41 605.005 641.113 604.831C641.817 604.657 643.303 604.269 644.417 603.969C646.129 603.508 646.904 603.423 649.434 603.419C652.765 603.414 654.127 603.155 656.353 602.102C658.86 600.916 660.601 600.427 663.094 600.208C664.406 600.093 665.608 599.949 665.765 599.889C665.922 599.829 667.058 599.701 668.289 599.605C670.273 599.449 670.757 599.325 672.552 598.508C675.606 597.118 677.905 596.588 680.907 596.583C683.804 596.578 685.536 596.129 688.802 594.536C689.87 594.015 690.944 593.587 691.187 593.585C691.43 593.583 692.3 593.43 693.12 593.245C693.941 593.06 695.771 592.838 697.187 592.752C699.945 592.583 700.682 592.333 703.671 590.55C704.817 589.867 704.915 589.848 708.041 589.719C711.914 589.558 713.908 589.068 716.329 587.678C718.904 586.2 719.41 586.065 722.886 585.921C726.008 585.792 726.008 585.792 728.641 584.46C731.395 583.066 732.285 582.821 736.979 582.163C739.309 581.837 740.734 581.418 742.463 580.553C744.048 579.76 746.369 579.063 747.423 579.063C748.292 579.063 753.353 577.462 754.799 576.731C755.557 576.347 758.851 575.487 761.274 575.039C761.948 574.915 763.339 574.463 764.364 574.036C767.995 572.525 769.019 572.227 770.594 572.227C771.688 572.227 773.108 571.961 775.874 571.236C777.955 570.692 780.137 570.157 780.723 570.048C781.309 569.939 782.496 569.701 783.362 569.519C785.815 569.002 810.197 569.002 812.086 569.519C812.806 569.716 813.788 569.877 814.267 569.877C814.986 569.877 820.296 571.137 823.244 572.007C823.653 572.128 824.635 572.227 825.426 572.227C826.929 572.227 829.364 572.895 832.624 574.2C834.467 574.937 837.495 575.796 839.318 576.098C840.01 576.212 841.449 576.723 842.515 577.232C844.831 578.339 847.074 579.063 848.187 579.063C849.401 579.063 851.427 579.768 853.066 580.76C854.696 581.747 857.626 582.644 860.058 582.901C861.328 583.035 861.857 583.221 863.089 583.967C865.028 585.141 867.411 585.898 869.167 585.898C870.938 585.898 872.805 586.496 874.509 587.609C876.506 588.913 878.648 589.53 881.86 589.728C884.729 589.904 885.226 590.039 886.67 591.035C888.424 592.245 889.732 592.73 891.247 592.732C892.014 592.733 893.165 592.87 893.805 593.036C894.445 593.202 895.519 593.438 896.192 593.562C897.056 593.721 897.832 594.072 898.826 594.754C900.667 596.018 902.497 596.579 904.773 596.579C906.861 596.579 908.517 597.038 911.483 598.44C912.776 599.051 914.014 599.47 914.897 599.594C915.659 599.701 916.404 599.833 916.552 599.887C916.7 599.941 917.659 600.087 918.683 600.212C920.759 600.464 922.729 601.045 924.489 601.924C926.315 602.837 928.664 603.415 930.548 603.415C932.592 603.415 935.518 604.171 938.237 605.403C939.84 606.129 940.47 606.295 942.073 606.416C944.603 606.608 947.407 607.157 949.64 607.9C952.836 608.963 957.765 610.088 959.977 610.258C961.514 610.377 962.496 610.582 963.494 610.994C964.362 611.351 965.557 611.63 966.691 611.738C967.688 611.834 969.079 612.056 969.782 612.232C970.993 612.534 973.164 612.983 975.537 613.421C976.123 613.529 977.706 613.862 979.054 614.16C983.326 615.104 985.288 615.449 987.26 615.603C988.315 615.685 990.041 615.959 991.097 616.212C992.152 616.465 993.686 616.819 994.507 616.999C995.327 617.179 997.077 617.609 998.394 617.954C1000.48 618.5 1001.17 618.581 1003.69 618.581C1005.49 618.581 1007.05 618.697 1007.8 618.884C1008.46 619.05 1009.53 619.252 1010.17 619.332C1010.82 619.412 1013.22 619.944 1015.5 620.514C1018.59 621.283 1020.26 621.586 1022 621.69C1023.29 621.767 1024.73 621.924 1025.2 622.039C1025.67 622.155 1028.07 622.331 1030.53 622.43C1033.76 622.561 1035.51 622.732 1036.82 623.045C1037.81 623.283 1039.44 623.673 1040.44 623.911C1041.44 624.149 1043.07 624.449 1044.06 624.577C1045.06 624.706 1046.47 624.947 1047.2 625.114C1048.2 625.343 1050.29 625.418 1055.83 625.42C1061.3 625.422 1063.46 625.498 1064.42 625.719C1065.12 625.882 1066.9 626.081 1068.36 626.161C1069.83 626.241 1071.57 626.443 1072.23 626.609C1072.89 626.776 1074 626.912 1074.69 626.912C1075.38 626.912 1076.52 627.068 1077.22 627.257C1077.91 627.447 1079.92 627.678 1081.68 627.77C1083.44 627.861 1085.22 628.034 1085.63 628.153C1086.04 628.272 1089.78 628.42 1093.94 628.482C1098.41 628.549 1102.07 628.699 1102.88 628.851C1103.95 629.051 1104.69 629.05 1106.29 628.844C1108.33 628.581 1124.5 628.657 1129.37 628.952C1134.75 629.277 1139.32 627.086 1140.36 623.685C1141.09 621.31 1140.82 619.382 1139.57 618.047C1139.24 617.695 1138.66 616.926 1138.27 616.338C1134.42 610.522 1127.75 606.882 1120.05 606.399C1117.72 606.253 1114.84 605.746 1112.91 605.143C1112.5 605.015 1111.69 604.909 1111.1 604.907C1110.51 604.906 1109.53 604.771 1108.92 604.608C1108.31 604.445 1106.77 604.245 1105.51 604.164C1104.24 604.084 1102.67 603.882 1102.01 603.716C1101.09 603.486 1099.07 603.414 1093.48 603.413C1085.44 603.411 1086.23 603.503 1079.66 601.824C1074.25 600.442 1074.24 600.441 1068.55 600.307C1065.28 600.229 1062.52 600.058 1061.57 599.874C1060.71 599.707 1059.57 599.57 1059.05 599.57C1058.52 599.57 1057.12 599.246 1055.93 598.851C1050.53 597.062 1047.78 596.568 1043.21 596.571C1038.63 596.573 1036.41 596.204 1033.73 594.994C1031.17 593.841 1029.74 593.567 1025.4 593.399C1023.17 593.312 1021.23 593.173 1021.1 593.089C1020.96 593.005 1019.73 592.853 1018.36 592.75C1015.86 592.564 1015.86 592.564 1013.18 591.207C1010.49 589.85 1010.49 589.85 1005.38 589.721C999.69 589.577 998.789 589.397 995.545 587.756C993.053 586.495 990.267 585.898 986.871 585.898C983.579 585.898 982.579 585.662 978.996 584.033C977.016 583.133 976.61 583.027 974.578 582.88C973.347 582.791 971.668 582.57 970.848 582.39C970.027 582.209 969.061 582.059 968.702 582.057C967.655 582.051 965.905 581.465 963.388 580.276C961.043 579.17 961.043 579.17 957.633 579.035C953.724 578.881 952.391 578.55 949.475 577.008C947.734 576.089 947.667 576.072 945.633 576.072C943.46 576.072 938.437 574.987 935.827 573.953C934.103 573.271 930.228 572.23 929.405 572.229C928.552 572.227 926.625 571.714 922.464 570.382C920.823 569.857 918.733 569.332 917.821 569.217C916.909 569.102 914.655 568.615 912.812 568.135C910.97 567.655 908.647 567.092 907.65 566.884C906.654 566.676 905.311 566.301 904.666 566.052C902.933 565.381 897.693 563.952 896.416 563.801C895.297 563.669 893.576 563.134 891.025 562.124C889.563 561.546 883.962 560.173 882.21 559.963C881.641 559.895 880.154 559.411 878.907 558.888C876.034 557.684 873.568 557.061 871.669 557.061C869.867 557.061 867.987 556.514 865.306 555.209C864.181 554.662 862.284 553.987 860.832 553.617C858.108 552.922 857.886 552.793 855.59 550.575C853.739 548.787 853.673 548.237 855.151 546.938C855.701 546.455 856.541 545.637 857.016 545.122C858.022 544.031 859.252 543.401 860.39 543.394C861.582 543.387 863.97 542.476 865.813 541.325C867.758 540.11 869.245 539.561 870.614 539.551C871.968 539.542 873.513 538.924 874.853 537.855C875.491 537.345 876.414 536.851 877.043 536.681C880.905 535.642 881.645 535.371 883.229 534.416C884.321 533.757 885.931 533.06 887.631 532.508C889.161 532.011 890.941 531.257 891.782 530.749C892.591 530.26 894.187 529.545 895.328 529.161C896.469 528.776 898.437 527.927 899.702 527.273C901.017 526.593 902.504 525.993 903.174 525.873C903.883 525.746 905.485 525.081 907.224 524.192C908.807 523.383 911.128 522.375 912.382 521.953C913.636 521.531 915.986 520.567 917.604 519.812C919.222 519.058 921.304 518.172 922.23 517.845C923.157 517.518 924.721 516.834 925.707 516.325C926.693 515.817 928.659 514.959 930.077 514.419C931.494 513.878 933.478 513.025 934.486 512.522C935.494 512.02 936.846 511.441 937.491 511.237C939.426 510.623 941.088 509.874 942.294 509.072C942.92 508.655 944.565 507.902 945.95 507.399C947.335 506.896 949.178 506.043 950.045 505.505C950.929 504.956 952.624 504.191 953.897 503.766C955.148 503.348 957.11 502.469 958.257 501.813C959.404 501.156 960.877 500.43 961.531 500.2C962.895 499.719 963.736 499.304 965.478 498.248C966.158 497.835 967.601 497.154 968.683 496.733C969.765 496.313 971.367 495.537 972.241 495.009C973.204 494.428 974.887 493.708 976.503 493.185C978.448 492.556 979.477 492.091 980.285 491.478C981.539 490.527 982.962 489.766 984.714 489.109C985.37 488.863 986.697 488.24 987.663 487.725C988.629 487.21 990.42 486.452 991.643 486.041C992.972 485.594 994.34 484.96 995.04 484.466C996.367 483.531 997.693 482.821 998.939 482.381C999.406 482.216 1000.66 481.578 1001.73 480.965C1002.8 480.352 1004.78 479.401 1006.12 478.852C1007.47 478.303 1009.3 477.463 1010.18 476.984C1011.06 476.506 1012.66 475.788 1013.73 475.388C1014.81 474.989 1016.43 474.235 1017.35 473.713C1018.27 473.19 1020.07 472.254 1021.36 471.633C1022.65 471.011 1024.25 470.185 1024.91 469.797C1025.57 469.409 1027.01 468.743 1028.11 468.317C1030.6 467.352 1033 466.215 1034.29 465.396C1034.83 465.051 1035.88 464.53 1036.62 464.24C1037.36 463.949 1038.6 463.325 1039.38 462.853C1040.16 462.382 1041.87 461.526 1043.17 460.952C1044.48 460.378 1046.1 459.539 1046.78 459.087C1047.45 458.635 1048.44 458.082 1048.97 457.86C1051.35 456.852 1052.58 456.241 1053.8 455.445C1054.53 454.973 1055.68 454.374 1056.36 454.114C1058.41 453.329 1059.45 452.825 1060.79 451.962C1061.5 451.51 1062.94 450.787 1063.99 450.354C1065.06 449.918 1066.51 449.106 1067.27 448.526C1068.53 447.555 1069.12 447.305 1071.69 446.636C1072.18 446.51 1073.3 445.873 1074.19 445.221C1075.32 444.394 1076.38 443.843 1077.67 443.406C1078.91 442.987 1079.92 442.467 1080.71 441.847C1082.16 440.711 1082.8 440.375 1084.45 439.9C1086.2 439.397 1086.85 439.039 1087.97 437.977C1089.15 436.855 1089.75 436.532 1091.91 435.827C1092.85 435.522 1094.07 434.984 1094.62 434.633C1095.17 434.281 1096.79 433.415 1098.22 432.709C1099.66 432.003 1101.22 431.162 1101.7 430.841C1102.18 430.52 1103.19 429.984 1103.96 429.65C1104.72 429.317 1106.12 428.577 1107.07 428.005C1108.02 427.434 1109.85 426.487 1111.12 425.9C1113.65 424.735 1113.8 424.662 1120.8 421.054C1123.43 419.694 1126.21 418.346 1126.98 418.06C1127.74 417.773 1128.99 417.203 1129.75 416.792C1132.56 415.274 1135.25 414.344 1137.31 414.174C1138.95 414.039 1139.55 413.871 1141.43 413.017C1145.38 411.225 1145.87 411.157 1155.51 411.026C1164.23 410.909 1168.29 411.077 1171.1 411.673C1174.5 412.396 1175.95 412.722 1177.48 413.11C1178.35 413.331 1179.69 413.513 1180.46 413.513C1181.23 413.513 1182.2 413.622 1182.61 413.754C1183.02 413.888 1184.89 414.067 1186.76 414.152C1188.64 414.238 1190.94 414.468 1191.88 414.663C1192.82 414.857 1194.35 415.166 1195.29 415.35C1196.23 415.533 1198.43 416.006 1200.19 416.4C1202.9 417.009 1203.94 417.135 1207.01 417.229C1209 417.289 1211.39 417.488 1212.31 417.669C1213.22 417.85 1214.38 417.997 1214.86 417.996C1215.35 417.994 1216.42 418.137 1217.24 418.313C1221.03 419.127 1223.32 419.494 1224.6 419.494C1225.36 419.494 1226.32 419.599 1226.73 419.728C1227.14 419.857 1228.86 420.044 1230.56 420.144C1232.26 420.244 1234.13 420.475 1234.7 420.657C1235.37 420.869 1236.55 420.989 1237.97 420.989C1239.26 420.989 1240.72 421.124 1241.43 421.308C1242.11 421.484 1243.51 421.72 1244.55 421.833C1245.59 421.945 1246.78 422.138 1247.19 422.261C1247.6 422.384 1248.96 422.484 1250.21 422.484C1251.52 422.484 1253.16 422.631 1254.05 422.828C1255.14 423.069 1257.31 423.214 1261.26 423.31C1264.36 423.386 1267.05 423.54 1267.23 423.653C1267.4 423.766 1269.27 423.927 1271.38 424.01C1273.49 424.094 1275.55 424.275 1275.96 424.414C1276.37 424.552 1278.2 424.739 1280.01 424.828C1281.83 424.918 1283.85 425.098 1284.49 425.228C1285.13 425.358 1288.06 425.563 1290.99 425.683C1293.92 425.803 1297.18 426.002 1298.24 426.126C1301.67 426.526 1345.09 426.267 1347.58 425.832C1348.69 425.637 1350.42 425.476 1351.42 425.474C1352.41 425.472 1353.76 425.328 1354.4 425.155C1355.11 424.965 1356.55 424.837 1358.02 424.834C1359.73 424.831 1360.99 424.701 1362.18 424.407C1363.41 424.102 1364.63 423.983 1366.55 423.98C1368.21 423.976 1369.66 423.856 1370.39 423.659C1371.1 423.467 1372.56 423.341 1374.12 423.336C1375.87 423.331 1377.25 423.196 1378.49 422.912C1379.48 422.683 1380.87 422.492 1381.58 422.487C1382.28 422.483 1383.38 422.337 1384.03 422.164C1384.67 421.991 1385.49 421.847 1385.85 421.846C1386.21 421.845 1387.22 421.654 1388.09 421.421C1389.04 421.17 1390.37 420.998 1391.38 420.997C1393.02 420.995 1394.33 420.774 1397.93 419.895C1398.84 419.675 1400.07 419.494 1400.68 419.494C1401.37 419.494 1402.59 419.223 1403.94 418.771C1406.05 418.06 1408.57 417.434 1411.31 416.936C1412.07 416.798 1413.51 416.357 1414.51 415.956C1416.77 415.046 1419.73 414.153 1420.48 414.153C1420.8 414.153 1422.25 413.567 1423.7 412.851C1425.15 412.134 1427.08 411.276 1427.99 410.944C1428.89 410.612 1430.45 409.847 1431.44 409.246C1432.44 408.644 1433.9 407.858 1434.7 407.5C1435.49 407.141 1436.63 406.482 1437.23 406.035C1437.82 405.588 1439.18 404.782 1440.25 404.244C1441.47 403.632 1442.69 402.801 1443.54 402.019C1444.28 401.333 1445.42 400.469 1446.07 400.099C1446.72 399.73 1447.44 399.226 1447.66 398.981C1447.88 398.735 1448.74 398.038 1449.56 397.432C1452.6 395.203 1456.53 391.102 1459.02 387.571C1459.44 386.977 1460.13 386.058 1460.56 385.529C1462.85 382.659 1464.72 379.298 1465.76 376.175C1466.08 375.2 1466.68 373.903 1467.09 373.291C1468.43 371.294 1468.68 370.621 1468.87 368.459C1468.97 367.332 1469.17 365.882 1469.33 365.236C1470.56 359.986 1469.39 341.715 1467.66 339.138C1466.53 337.455 1466.15 336.626 1465.91 335.284C1465.65 333.911 1464.55 331.583 1463.48 330.188C1463.09 329.668 1462.25 328.473 1461.61 327.533C1458.46 322.847 1456.58 320.719 1453.73 318.621C1452.85 317.974 1451.89 317.181 1451.6 316.858C1451.3 316.535 1450.49 315.831 1449.78 315.292C1449.08 314.753 1448.05 313.906 1447.49 313.408C1446.93 312.911 1445.39 311.954 1444.08 311.282C1442.76 310.61 1441.3 309.8 1440.83 309.481C1439.64 308.672 1438.27 307.996 1437.12 307.652C1436.58 307.491 1435.21 306.823 1434.07 306.168C1432.31 305.163 1431.7 304.929 1430.12 304.668C1426.92 304.138 1425.81 303.7 1423.49 302.044C1422.13 301.075 1422.13 301.075 1419.22 300.914C1415.66 300.715 1413.5 300.179 1411.52 299C1408.79 297.374 1407.46 297.094 1402.51 297.094C1397.5 297.094 1395.18 296.693 1391.28 295.152C1389.32 294.378 1388.73 294.246 1386.59 294.097C1385.24 294.003 1383.66 293.815 1383.07 293.679C1381.54 293.325 1327.89 293.323 1326.37 293.677C1325.79 293.814 1324.29 293.996 1323.05 294.081C1320.99 294.222 1320.64 294.312 1318.9 295.157C1317.5 295.835 1316.5 296.155 1315.14 296.361C1314.12 296.516 1312.92 296.743 1312.47 296.866C1312.03 296.99 1309.94 297.093 1307.83 297.095C1303.09 297.1 1301.15 297.525 1298.31 299.18C1296.5 300.233 1293.82 300.761 1289.5 300.915C1285.88 301.045 1285.88 301.045 1283.84 302.042C1280.85 303.51 1279.45 303.928 1277.52 303.934C1276.6 303.937 1275.46 304.032 1274.97 304.145C1274.48 304.258 1273.14 304.492 1271.99 304.664C1270.33 304.913 1269.55 305.158 1268.24 305.844C1265.38 307.337 1264.57 307.575 1261.68 307.774C1258.52 307.992 1256.64 308.472 1254.33 309.654C1253.39 310.133 1252.24 310.589 1251.77 310.668C1251.3 310.746 1250.21 310.992 1249.33 311.215C1248.46 311.437 1247.26 311.619 1246.67 311.619C1245.18 311.619 1242.98 312.288 1240.6 313.462C1238.77 314.365 1238.41 314.467 1236.45 314.62C1234.24 314.792 1231.81 315.473 1228.86 316.748C1228.1 317.078 1226.04 317.701 1224.28 318.134C1222.52 318.566 1220.21 319.289 1219.15 319.741C1217.29 320.536 1216.04 320.921 1212.23 321.88C1211.24 322.132 1209.35 322.754 1208.05 323.264C1206.74 323.774 1204.58 324.493 1203.25 324.862C1200.87 325.521 1198.52 326.302 1192.43 328.46C1190.74 329.058 1188.84 329.655 1188.22 329.785C1187.59 329.915 1186.14 330.46 1185 330.997C1183.86 331.534 1181.4 332.485 1179.54 333.111C1177.68 333.738 1175.93 334.399 1175.65 334.581C1174.69 335.216 1171.46 336.4 1170.11 336.617C1168.59 336.86 1167.05 337.485 1165.45 338.511C1164.86 338.886 1163.86 339.339 1163.21 339.518C1159.8 340.462 1158.96 340.787 1157.58 341.689C1155.84 342.829 1154.34 343.448 1153.32 343.448C1152.19 343.448 1149.84 344.255 1147.9 345.312C1145.6 346.564 1142.85 347.283 1140.34 347.288C1138.13 347.293 1136.55 347.759 1134.46 349.02C1132.09 350.453 1133.19 350.384 1112.38 350.386C1091.3 350.387 1092.93 350.497 1090.88 348.926C1089.43 347.821 1087.53 347.293 1085.01 347.293C1081.72 347.293 1077.42 346.354 1075.76 345.277C1073.88 344.052 1071.98 343.602 1068.15 343.469C1064.42 343.341 1064.42 343.341 1061.86 342.133C1058.81 340.691 1058.03 340.461 1056.21 340.455C1055.45 340.452 1054.25 340.311 1053.55 340.141C1052.84 339.971 1051.79 339.828 1051.19 339.824C1049.81 339.814 1048.04 339.347 1045.77 338.395C1042.18 336.894 1041.05 336.612 1038.59 336.612C1036.21 336.612 1034.03 336.143 1028.08 334.349C1026.73 333.943 1025.24 333.611 1024.77 333.613C1024.3 333.614 1023.35 333.48 1022.64 333.314C1021.94 333.149 1020.64 332.948 1019.76 332.869C1017.88 332.698 1014.48 331.887 1013.03 331.261C1012.46 331.018 1011.08 330.681 1009.97 330.513C1008.85 330.345 1007.6 330.11 1007.19 329.992C1006.78 329.873 1005.97 329.775 1005.38 329.774C1004.79 329.772 1003.45 329.527 1002.39 329.228C1001.34 328.93 999.899 328.554 999.196 328.395C998.493 328.235 996.814 327.808 995.466 327.446C994.118 327.085 992.641 326.788 992.184 326.787C991.728 326.786 990.529 326.598 989.52 326.369C983.786 325.065 982.431 324.782 981.079 324.603C979.493 324.393 974.936 323.34 970.507 322.161C969.03 321.767 967.544 321.444 967.203 321.443C966.863 321.442 966.075 321.304 965.451 321.138C964.828 320.971 963.677 320.775 962.893 320.7C961.228 320.542 958.981 320.08 956.509 319.387C955.539 319.116 953.957 318.741 952.992 318.554C952.028 318.368 950.657 318.077 949.946 317.908C949.235 317.739 948.198 317.6 947.641 317.6C947.013 317.6 945.548 317.24 943.778 316.651C939.357 315.178 936.876 314.61 934.862 314.61C932.945 314.61 929.905 313.872 928.539 313.075C927.096 312.232 925.641 311.794 923.636 311.597C922.523 311.488 921.132 311.298 920.546 311.176C919.96 311.053 918.781 310.873 917.927 310.775C916.772 310.642 915.844 310.345 914.304 309.616C911.413 308.246 909.521 307.774 906.922 307.774C904.403 307.774 902.459 307.294 899.781 306.009C897.167 304.754 894.633 304.137 891.338 303.953C888.718 303.807 888.488 303.757 887.288 303.08C883.495 300.938 883.498 300.94 881.035 300.926C879.789 300.919 878.338 300.835 877.81 300.738C877.283 300.642 876.132 300.448 875.252 300.306C874.091 300.118 873.159 299.782 871.843 299.075C869.008 297.552 868.046 297.28 864.808 297.086C861.782 296.904 860.152 296.44 856.922 294.843C856.272 294.522 855.119 294.184 854.333 294.085C853.554 293.987 852.499 293.812 851.988 293.697C851.478 293.582 850.293 293.437 849.355 293.375C847.847 293.275 847.405 293.138 845.519 292.187C842.759 290.794 841.715 290.482 839.12 290.274C834.336 289.89 833.479 288.049 836.543 284.734C839.272 281.779 843.026 280.22 852.559 278.077C854.483 277.645 855.183 277.46 860.013 276.107C861.888 275.581 864.334 274.93 865.448 274.66C866.562 274.389 868.304 273.849 869.319 273.459C871.541 272.606 875.29 271.564 877.301 271.243C878.107 271.113 879.726 270.618 880.899 270.141C884.386 268.724 885.286 268.453 887.189 268.249C889.431 268.009 891.134 267.46 893.059 266.356C895.02 265.23 897.904 264.411 899.903 264.411C901.304 264.411 901.599 264.329 903.11 263.522C904.024 263.034 905.208 262.407 905.739 262.13C906.326 261.823 907.369 261.547 908.403 261.424C910.763 261.144 912.519 260.589 915.007 259.337C917.65 258.007 919.066 257.575 920.787 257.575C922.012 257.575 922.354 257.458 924.913 256.156C927.703 254.736 927.703 254.736 930.537 254.469C933.599 254.18 934.479 253.876 936.105 252.542C937.44 251.448 939.011 250.92 941.434 250.752C943.747 250.591 944.437 250.345 946.865 248.819C948.523 247.776 951.166 246.898 952.688 246.885C954.098 246.873 955.052 246.528 956.768 245.407C958.299 244.408 959.715 243.906 961.024 243.9C962.359 243.893 965.561 242.989 967.224 242.148C969.15 241.175 972.054 240.296 974.099 240.066C975.449 239.914 976.144 239.67 978.312 238.587C980.167 237.66 981.298 237.233 982.273 237.091C983.856 236.861 988.162 235.439 990.469 234.386C991.346 233.985 992.806 233.467 993.712 233.233C995.773 232.703 998.594 231.734 1000.25 230.988C1000.94 230.674 1002.01 230.326 1002.61 230.213C1003.22 230.101 1004.71 229.621 1005.93 229.147C1007.15 228.673 1008.92 228.014 1009.85 227.683C1010.79 227.352 1012.18 226.833 1012.94 226.529C1013.71 226.226 1015.62 225.643 1017.21 225.234C1018.79 224.825 1020.8 224.156 1021.68 223.749C1023.29 223.004 1024.56 222.566 1029.23 221.142C1030.62 220.717 1032.8 219.891 1034.08 219.305C1035.94 218.447 1036.72 218.208 1038.1 218.068C1039.63 217.914 1039.97 217.793 1041.25 216.948C1042.94 215.826 1043.97 215.393 1045.68 215.081C1047.25 214.797 1049.49 213.927 1051.31 212.891C1052.68 212.115 1054.74 211.455 1057.11 211.036C1058.3 210.825 1059.2 210.44 1061.54 209.142C1062.19 208.784 1063.91 208.187 1065.37 207.814C1067.57 207.251 1068.24 206.979 1069.31 206.218C1071.27 204.826 1071.89 204.571 1073.79 204.398C1075.7 204.223 1077.17 203.657 1079.34 202.256C1080.7 201.377 1083.09 200.54 1084.24 200.54C1085.34 200.54 1086.69 199.962 1088 198.933C1089.37 197.853 1090.04 197.55 1091.05 197.55C1092.2 197.55 1094.5 196.737 1097.13 195.399C1098.48 194.71 1100.35 193.94 1101.29 193.686C1102.23 193.432 1103.96 192.743 1105.13 192.153C1106.3 191.564 1108.17 190.797 1109.28 190.448C1110.39 190.1 1112.26 189.358 1113.44 188.8C1114.61 188.242 1117.25 187.231 1119.3 186.553C1121.35 185.876 1123.51 185.056 1124.1 184.731C1124.68 184.407 1126.17 183.888 1127.4 183.579C1128.63 183.269 1131.75 182.353 1134.33 181.541C1140.44 179.621 1147.15 177.897 1148.53 177.897C1149.42 177.897 1152.52 177.158 1155.37 176.264C1157.04 175.743 1158.08 175.543 1159.21 175.532C1160.06 175.524 1161.29 175.428 1161.93 175.32C1162.58 175.212 1165.12 174.996 1167.59 174.841C1170.06 174.685 1172.21 174.473 1172.38 174.369C1172.55 174.265 1174.27 174.112 1176.21 174.03C1178.14 173.947 1180.83 173.714 1182.18 173.512C1185.24 173.055 1194.73 173.184 1197.21 173.717C1198.03 173.893 1199.5 174.04 1200.48 174.045C1201.46 174.049 1202.8 174.187 1203.46 174.353C1204.23 174.544 1206.45 174.695 1209.57 174.768C1212.91 174.846 1214.88 174.987 1215.75 175.208C1216.45 175.386 1217.44 175.536 1217.95 175.54C1218.45 175.544 1219.46 175.685 1220.18 175.853C1223.76 176.68 1227.25 177.368 1230.03 177.792C1232.48 178.166 1239.04 179.67 1240.63 180.222C1241.3 180.455 1242.3 180.705 1242.87 180.778C1244.74 181.022 1250.31 182.25 1253.61 183.148C1255.08 183.55 1256.74 183.879 1257.29 183.879C1257.84 183.879 1259.03 184.059 1259.93 184.28C1260.84 184.501 1262.34 184.848 1263.28 185.051C1264.22 185.254 1266.04 185.737 1267.33 186.124C1269 186.624 1270.33 186.87 1271.91 186.972C1274.87 187.16 1277.77 187.777 1280.08 188.705C1282.11 189.525 1284.32 190.064 1285.66 190.07C1286.13 190.072 1286.85 190.177 1287.26 190.304C1287.67 190.43 1289.01 190.609 1290.24 190.701C1292.18 190.846 1292.83 191.003 1295.01 191.86C1298.69 193.306 1300.45 193.705 1303.14 193.705C1305.61 193.705 1309.32 194.416 1311.13 195.236C1313.26 196.198 1315.15 196.721 1317.14 196.899C1318.28 197 1319.33 197.16 1319.49 197.254C1319.64 197.348 1321.11 197.483 1322.75 197.552C1325.73 197.679 1325.73 197.679 1328.11 198.774C1331.58 200.376 1332.28 200.54 1335.63 200.544C1337.43 200.546 1339.09 200.672 1340.01 200.876C1340.83 201.057 1342.31 201.283 1343.29 201.379C1344.8 201.526 1345.35 201.699 1346.91 202.517C1350.15 204.214 1351 204.385 1356.2 204.385C1361.38 204.385 1361.76 204.458 1365.33 206.135C1368.03 207.398 1369.72 207.676 1376.78 208.012C1382.55 208.287 1382.73 208.316 1384.82 209.297C1388.39 210.971 1389.68 211.221 1394.76 211.221C1400.37 211.221 1404.44 211.836 1408.2 213.249C1409.37 213.687 1411 214.131 1411.83 214.237C1412.66 214.343 1414.1 214.538 1415.04 214.67C1415.98 214.803 1419.05 214.982 1421.86 215.07C1426.06 215.201 1427.25 215.309 1428.47 215.667C1437.17 218.217 1436.17 218.055 1443.22 218.056C1448.04 218.056 1450.02 218.135 1451.13 218.369C1451.94 218.54 1453.65 218.742 1454.93 218.818C1456.2 218.893 1457.79 219.089 1458.45 219.253C1459.11 219.418 1459.97 219.552 1460.37 219.552C1460.76 219.552 1461.75 219.744 1462.57 219.979C1463.39 220.214 1464.54 220.407 1465.13 220.409C1465.72 220.41 1466.72 220.554 1467.37 220.728C1468.17 220.944 1470.16 221.085 1473.66 221.17C1476.47 221.24 1479.74 221.432 1480.93 221.599C1482.12 221.765 1484.74 221.902 1486.76 221.902C1489.2 221.902 1490.84 222.002 1491.64 222.202C1492.32 222.372 1494.66 222.564 1497.04 222.645C1499.51 222.73 1501.7 222.913 1502.37 223.09C1503.08 223.28 1504.6 223.394 1506.48 223.397C1508.4 223.4 1509.88 223.513 1510.63 223.712C1511.48 223.941 1513.79 224.059 1519.37 224.159C1524.73 224.255 1527.29 224.382 1528.14 224.594C1529.72 224.985 1566.55 225.041 1567.76 224.653C1568.17 224.521 1570.23 224.337 1572.34 224.243C1574.68 224.139 1576.64 223.941 1577.35 223.737C1578.12 223.519 1579.4 223.401 1581.05 223.4C1582.49 223.398 1584.09 223.269 1584.78 223.098C1585.44 222.934 1586.7 222.739 1587.58 222.666C1588.46 222.593 1589.71 222.392 1590.35 222.22C1591.12 222.014 1592.62 221.903 1594.72 221.895C1596.48 221.888 1598.93 221.789 1600.16 221.673C1601.39 221.557 1604.03 221.33 1606.02 221.167C1609.29 220.9 1609.89 220.787 1612.2 219.99C1613.62 219.499 1615.7 218.969 1616.89 218.795C1618.06 218.623 1619.4 218.388 1619.87 218.274C1620.34 218.16 1621.77 218.065 1623.04 218.062C1625.53 218.056 1628.27 217.466 1630.61 216.429C1632.78 215.466 1634.44 215.066 1636.26 215.066C1638.21 215.066 1640.67 214.452 1643.09 213.363C1645.58 212.243 1648.53 211.412 1650.61 211.241C1652.64 211.074 1653.08 210.908 1656.23 209.124C1657.08 208.645 1657.91 208.383 1659.11 208.22C1662.23 207.794 1664.11 207.219 1665.45 206.274C1667.13 205.095 1668.53 204.592 1670.73 204.384C1672.77 204.192 1673.85 203.746 1675.4 202.456C1676.71 201.364 1677.88 200.81 1679.4 200.565C1680.8 200.339 1682.27 199.635 1683.63 198.539C1684.16 198.107 1685.2 197.613 1686.29 197.272C1687.96 196.748 1688.52 196.45 1690.7 194.919C1691.17 194.588 1692.43 193.993 1693.49 193.595C1694.56 193.198 1696.08 192.456 1696.87 191.946C1697.66 191.436 1698.79 190.745 1699.38 190.412C1699.96 190.078 1700.87 189.448 1701.4 189.012C1701.93 188.577 1703.26 187.622 1704.37 186.892C1705.47 186.161 1706.86 185.14 1707.47 184.623C1708.07 184.106 1709.14 183.343 1709.83 182.926C1712.57 181.291 1720.05 174.464 1722.25 171.596C1722.79 170.891 1724.26 169.225 1725.51 167.895C1726.76 166.564 1728.15 164.882 1728.59 164.157C1729.03 163.431 1729.84 162.309 1730.38 161.663C1730.93 161.017 1731.75 159.959 1732.2 159.313C1732.64 158.667 1733.32 157.79 1733.7 157.364C1734.68 156.257 1735.38 154.984 1736.14 152.905C1736.51 151.906 1737.17 150.464 1737.63 149.701C1738.08 148.937 1738.66 147.687 1738.92 146.924C1739.18 146.16 1739.91 144.504 1740.54 143.243C1741.51 141.307 1741.77 140.513 1742.23 138.117C1742.74 135.5 1743.53 131.789 1744.03 129.728C1744.14 129.258 1744.24 128.2 1744.24 127.378C1744.25 126.556 1744.39 125.306 1744.56 124.601C1745.39 121.146 1744.97 108.051 1743.91 104.085C1743.37 102.093 1742.7 99.4814 1742.43 98.2821C1741.89 95.9388 1740.98 93.4588 1739.35 89.8889C1738.78 88.6552 1738.2 87.2614 1738.06 86.7915C1737.64 85.4602 1736.72 83.7682 1735.2 81.5579C1734.44 80.4418 1733.52 78.9673 1733.15 78.2813C1732.79 77.5954 1731.95 76.4419 1731.27 75.718C1730.6 74.994 1729.63 73.8252 1729.12 73.1202C1727.09 70.3343 1719.78 63.1302 1717.81 61.9739C1717.29 61.6637 1716.28 60.8717 1715.57 60.2135C1714.86 59.5554 1713.61 58.6618 1712.78 58.228C1711.96 57.7941 1710.63 56.9113 1709.82 56.2662C1709 55.6168 1707.63 54.7929 1706.74 54.4201C1705.86 54.0497 1704.44 53.3271 1703.59 52.814C1702.61 52.2178 1701.22 51.6408 1699.75 51.2142C1698.48 50.8436 1696.61 50.0904 1695.54 49.5192C1693.57 48.4631 1692.91 48.2401 1689.01 47.3149C1687.77 47.0193 1685.91 46.3795 1684.88 45.8935C1682.89 44.9562 1681.01 44.4596 1678.35 44.1722C1677.36 44.0646 1676.11 43.7377 1675.13 43.3297C1674.25 42.9632 1673.07 42.584 1672.49 42.487C1670.96 42.2266 1668.01 41.6292 1666.54 41.2789C1665.83 41.1099 1664.48 40.9704 1663.55 40.9689C1662.62 40.9676 1661.33 40.8245 1660.69 40.651C1660.05 40.4776 1659.23 40.3345 1658.87 40.3332C1658.51 40.3317 1657.65 40.1764 1656.95 39.9878C1656.25 39.7992 1655.11 39.5727 1654.4 39.4845C1652.97 39.3046 1649.96 38.7443 1647.96 38.2853C1647.14 38.0964 1645.45 37.9796 1643.49 37.9777C1641.59 37.9758 1639.82 37.8576 1639.06 37.6818C1638.35 37.521 1636.72 37.3259 1635.42 37.2488C1634.12 37.1717 1632.54 36.9694 1631.9 36.7996C1631.26 36.6296 1629.98 36.4886 1629.04 36.486C1628.1 36.4832 1626.24 36.2899 1624.91 36.0562C1623.52 35.8133 1621.53 35.6311 1620.25 35.6311C1619.02 35.6311 1617.47 35.4968 1616.81 35.3325C1616.06 35.146 1613.77 34.9871 1610.71 34.9089C1607.49 34.8269 1605.36 34.6748 1604.53 34.4676C1603.56 34.2273 1601.82 34.1493 1597.31 34.1435C1592.4 34.1371 1591.15 34.0733 1590.06 33.7731C1588.08 33.2224 1539.16 33.2278 1537.14 33.7789C1536.08 34.0679 1534.8 34.1365 1530.43 34.1393C1526.18 34.1418 1524.75 34.2149 1523.74 34.4819C1522.78 34.7391 1520.79 34.8591 1515.54 34.9773C1511.25 35.0736 1508.33 35.228 1507.87 35.3821C1507.43 35.528 1505.78 35.6311 1503.89 35.6311C1501.51 35.6311 1500.07 35.745 1498.49 36.0584C1497.3 36.2933 1495.54 36.4867 1494.58 36.4882C1493.62 36.4894 1492.32 36.6296 1491.68 36.7994C1491.04 36.9692 1489.85 37.1683 1489.02 37.2418C1488.19 37.315 1486.76 37.5116 1485.83 37.678C1484.88 37.8512 1482.79 37.9809 1480.96 37.9809C1478.93 37.9809 1477.33 38.0903 1476.56 38.2806C1475.9 38.4453 1474.68 38.6416 1473.85 38.7168C1473.03 38.792 1471.83 38.9926 1471.19 39.1624C1470.55 39.3322 1469.7 39.4745 1469.29 39.4787C1468.88 39.4828 1467.83 39.6761 1466.96 39.9085C1466.08 40.1407 1464.93 40.3317 1464.4 40.3332C1463.86 40.3345 1462.9 40.4776 1462.25 40.651C1461.54 40.8439 1460.09 40.9687 1458.52 40.9723C1457.03 40.9757 1455.43 41.108 1454.69 41.2891C1453.98 41.46 1452.59 41.6578 1451.6 41.7285C1450.54 41.8035 1448.77 42.1515 1447.33 42.5659C1443.43 43.6933 1441.91 43.9616 1438.16 44.1759C1436.23 44.2867 1434.22 44.4719 1433.69 44.5875C1433.16 44.7033 1432.2 44.8043 1431.56 44.8122C1430.81 44.8214 1429.92 45.0224 1429.11 45.3666C1426.64 46.4083 1425.05 46.9326 1423.67 47.1528C1422.91 47.275 1421.95 47.4721 1421.54 47.5909C1421.13 47.7099 1419.45 47.8071 1417.8 47.8071C1414.62 47.8071 1412.03 48.2913 1409.68 49.3291C1407.8 50.1562 1404.88 50.8024 1402.15 50.9987C1400.68 51.1038 1399.15 51.2937 1398.74 51.4208C1398.33 51.5481 1397.46 51.6528 1396.82 51.6534C1395.21 51.6549 1394.35 51.9187 1391.38 53.3183C1388.82 54.5252 1388.82 54.5252 1384.22 54.6374C1379.62 54.7495 1379.62 54.7495 1376.97 56.1094C1373.39 57.9548 1371.09 58.4877 1366.74 58.4877C1363.29 58.4877 1363.57 58.4031 1359.69 60.5963C1358.33 61.3645 1357.96 61.4228 1352.89 61.6646C1349.35 61.8331 1349.35 61.8331 1346.27 63.3432C1342.37 65.2546 1342.11 65.3208 1338.57 65.3221C1335.4 65.3234 1333.92 65.6455 1332.27 66.6886C1329.95 68.1591 1328.24 68.5769 1323.07 68.9426C1320.46 69.1274 1320.43 69.1344 1317.9 70.3225C1315.83 71.2973 1312.66 72.1568 1311.13 72.1611C1309.25 72.1662 1306.31 73.0608 1304.25 74.2596C1303.18 74.8808 1302.73 74.9985 1300.74 75.1827C1296.93 75.5339 1293.63 76.2879 1291.59 77.2712C1289.5 78.2741 1286.91 78.9946 1285.4 78.9946C1284.27 78.9946 1282.86 79.3669 1278.84 80.7246C1277.43 81.2001 1275.2 81.8271 1273.86 82.118C1272.53 82.4088 1270.14 82.9866 1268.54 83.4016C1266.94 83.8169 1265.2 84.2456 1264.67 84.3544C1264.14 84.4633 1262.96 84.8027 1262.04 85.1088C1261.12 85.4147 1259.82 85.7894 1259.16 85.9411C1258.5 86.0929 1257.23 86.4187 1256.35 86.665C1255.48 86.9115 1254.13 87.2057 1253.36 87.3191C1252.59 87.4323 1250.24 88.0966 1248.12 88.795C1244.29 90.0585 1241.99 90.6955 1237.92 91.6108C1236.75 91.8746 1235.16 92.374 1234.4 92.7205C1232.06 93.7849 1231.38 93.9746 1229.25 94.1677C1226.73 94.3952 1225.2 94.8248 1223.1 95.8912C1221.08 96.9225 1217.83 97.7953 1215.22 98.007C1213.37 98.1568 1213.06 98.2499 1211.68 99.0599C1209.47 100.358 1207.53 100.987 1205.72 100.992C1203.55 100.999 1200.4 101.871 1198.79 102.912C1198.01 103.419 1197.02 103.845 1196.29 103.992C1195.62 104.126 1194.48 104.371 1193.75 104.538C1193.03 104.705 1191.9 104.842 1191.24 104.842C1189.84 104.842 1189.06 105.139 1187.3 106.333C1185.51 107.552 1184.68 107.795 1181.81 107.949C1178.81 108.109 1177.86 108.384 1175.89 109.654C1173.46 111.223 1172.5 111.507 1168.97 111.682C1165.58 111.85 1164.93 112.022 1161.68 113.595C1160.3 114.263 1159.41 114.544 1158.17 114.696C1157.25 114.809 1156.16 114.986 1155.75 115.09C1155.34 115.194 1152.51 115.342 1149.46 115.42C1145.5 115.521 1143.56 115.656 1142.64 115.896C1140.76 116.392 1127.25 116.389 1125.38 115.892C1124.47 115.65 1122.6 115.514 1118.88 115.417C1116 115.343 1113.18 115.191 1112.59 115.08C1112 114.97 1110.77 114.785 1109.86 114.67C1108.67 114.521 1107.67 114.216 1106.38 113.613C1103.07 112.054 1101.18 111.678 1096.68 111.676C1092.2 111.675 1091.93 111.62 1088.72 110.056C1085.83 108.643 1083.39 108.156 1078.17 107.946C1074.38 107.793 1073.13 107.513 1071.2 106.38C1068.97 105.071 1068.56 104.981 1064.1 104.834C1061.81 104.758 1059.41 104.589 1058.77 104.457C1058.13 104.327 1056.88 104.133 1055.99 104.029C1054.83 103.89 1053.95 103.619 1052.8 103.037C1050.1 101.681 1047.04 101 1043.64 100.998C1042.05 100.997 1040.42 100.898 1040.01 100.777C1039.6 100.656 1038.57 100.466 1037.73 100.356C1036.71 100.222 1035.7 99.909 1034.74 99.4248C1032.73 98.409 1031.24 98.0062 1029.48 98.0062C1028.65 98.0062 1027.63 97.9011 1027.22 97.7727C1026.81 97.6443 1025.09 97.4563 1023.39 97.3546C1020.2 97.1641 1018.65 96.8277 1016.24 95.8083C1013.65 94.711 1011.61 94.3307 1007.4 94.1613C1005.23 94.0742 1003.12 93.8943 1002.71 93.7617C1002.3 93.6288 1001.69 93.5203 1001.35 93.5203C1001.01 93.5203 999.173 92.9916 997.268 92.3454C993.806 91.1705 993.806 91.1705 990.914 91.1705C988.8 91.1705 987.546 91.059 986.255 90.7559C985.284 90.528 983.482 90.1285 982.251 89.8683C981.02 89.6082 979.342 89.163 978.521 88.8793C977.659 88.5811 976.114 88.2801 974.859 88.1661C973.666 88.0573 972.084 87.8251 971.342 87.6502C970.602 87.475 969.388 87.3304 968.645 87.3287C967.366 87.3257 964.435 86.7272 963.284 86.2339C962.993 86.1092 962.13 85.9327 961.366 85.842C959.859 85.6629 956.92 85.1231 954.818 84.6393C954.091 84.4718 952.917 84.3349 952.21 84.3349C951.347 84.3349 950.239 84.1125 948.843 83.6593C947.699 83.2876 946.043 82.9191 945.164 82.8403C943.679 82.707 941.964 82.4111 938.237 81.6453C937.416 81.4768 936.243 81.3401 935.63 81.3416C934.632 81.3441 927.324 79.6265 926.74 79.2522C926.616 79.1725 924.979 79.0469 923.103 78.9734C919.234 78.8214 917.557 78.5084 913.299 77.1426C911.317 76.5069 909.664 76.1219 908.379 75.9967C907.314 75.8929 905.991 75.7067 905.438 75.5825C904.886 75.4586 903.552 75.3036 902.472 75.238C900.56 75.122 898.177 74.5344 892.517 72.7842C890.651 72.207 890.236 72.1579 887.227 72.1585C883.666 72.159 881.065 71.6781 878.512 70.5464C876.789 69.7827 874.216 69.1684 872.74 69.1684C872.043 69.1684 870.651 69.0248 869.647 68.8495C868.644 68.6741 866.833 68.4391 865.623 68.3274C863.793 68.1582 862.777 67.9 859.586 66.793C855.75 65.4622 855.75 65.4622 851.167 65.3157C846.015 65.1512 844.884 64.9098 842.103 63.3831C840.019 62.2379 837.33 61.7605 831.984 61.586C827.275 61.4322 826.694 61.3113 822.927 59.7019C820.368 58.6084 820.368 58.6084 816.105 58.4946C813.76 58.432 811.716 58.2993 811.562 58.1996C811.408 58.1 810.374 57.9405 809.264 57.8452C807.542 57.6974 806.991 57.5468 805.495 56.8154C802.325 55.2658 800.244 54.7997 795.856 54.6564C793.746 54.5876 791.906 54.4581 791.767 54.3691C791.627 54.2798 790.717 54.1068 789.743 53.9844C788.531 53.832 787.199 53.4527 785.52 52.7813C783.234 51.8674 782.886 51.7899 780.403 51.6406C778.938 51.5524 777.404 51.3749 776.994 51.2458C776.585 51.1168 775.482 51.0106 774.543 51.0096C771.383 51.0066 769.532 50.6791 767.483 49.7601C766.442 49.2932 765.158 48.7995 764.63 48.6632C764.103 48.527 763.26 48.2785 762.758 48.1113C762.119 47.8985 760.806 47.8067 758.389 47.8058C756.488 47.8052 754.588 47.7088 754.166 47.5913C753.745 47.4741 752.69 47.2442 751.822 47.0808C750.954 46.9172 749.284 46.5265 748.112 46.2127C743.795 45.0572 742.62 44.8165 741.297 44.8165C740.553 44.8165 738.665 44.6249 737.101 44.3908C735.537 44.1564 733.857 43.9642 733.368 43.9635C732.35 43.9618 729.635 43.3541 726.691 42.4687C723.578 41.5328 721.135 41.1323 717.526 40.9659C714.01 40.804 712.33 40.4906 705.057 38.6412C702.798 38.0668 702.139 37.9901 699.422 37.9858C697.505 37.9828 695.857 37.8651 695.052 37.6739C693.289 37.2552 690.614 36.7197 689.071 36.4768C688.367 36.3662 687.264 36.1316 686.62 35.9558C685.975 35.78 685.077 35.635 684.625 35.6337C684.174 35.6322 683.262 35.4968 682.601 35.3327C681.939 35.1687 680.486 34.9751 679.373 34.9027C678.259 34.8303 676.82 34.6293 676.175 34.4561C675.531 34.2826 674.62 34.141 674.151 34.1412C673.308 34.1414 671.653 33.8221 668.455 33.0419C667.389 32.7822 666.036 32.6406 664.617 32.6406C663.411 32.6406 662.09 32.5382 661.68 32.4133C661.271 32.2883 659.929 32.0967 658.698 31.9873C657.467 31.8782 655.932 31.6451 655.287 31.4695C654.643 31.2939 653.685 31.1491 653.159 31.1478C652.633 31.1463 650.666 30.8167 648.789 30.4151C643.739 29.3349 641.127 28.9831 636.744 28.7927C632.751 28.6195 632.538 28.5819 628.325 27.3139C627.504 27.067 625.921 26.7243 624.808 26.5526C623.694 26.3811 622.448 26.1427 622.038 26.0228C621.629 25.903 619.471 25.8039 617.243 25.8024C614.349 25.8007 612.856 25.7097 612.019 25.4845C611.374 25.3111 610.37 25.1679 609.788 25.1667C609.205 25.1652 607.911 24.9657 606.91 24.723C600.262 23.11 598.845 22.825 596.353 22.5997C591.829 22.1904 588.612 21.9956 586.122 21.98C583.547 21.964 581.637 21.6205 578.555 20.6197C574.342 19.2515 573.529 19.1479 565.66 18.9755C559.902 18.8493 558.174 18.7446 557.248 18.4658C556.607 18.2727 555.743 18.1149 555.328 18.1149C554.497 18.1149 551.776 17.3817 549.461 16.5341C548.533 16.1943 547.515 15.986 546.769 15.9832C546.109 15.9807 544.479 15.7876 543.146 15.5536C541.045 15.1852 539.749 15.1283 533.404 15.1264C525.304 15.1241 524.086 14.9715 521.428 13.6264C520.639 13.2274 519.61 12.9309 518.527 12.7912C517.605 12.672 516.515 12.4753 516.105 12.3541C515.655 12.2209 512.411 12.1348 507.899 12.1365C502.148 12.1386 500.096 12.0673 498.946 11.8255C498.125 11.6529 496.015 11.4147 494.257 11.2961C490.645 11.0526 489.801 10.9065 486.05 9.8756C484.585 9.47273 482.906 9.14247 482.32 9.14162C481.734 9.14076 480.457 8.94851 479.483 8.71439C477.839 8.31942 476.959 8.28845 467.334 8.2861C458.861 8.28396 456.741 8.22565 455.784 7.96825C455.139 7.79479 453.934 7.65168 453.105 7.6504C452.277 7.6489 450.886 7.45792 450.015 7.22572C449.143 6.99331 448.02 6.80106 447.519 6.7985C447.018 6.79572 445.867 6.6118 444.961 6.38964C441.575 5.55911 439.816 5.3094 436.601 5.20259C434.784 5.14235 432.77 5.00287 432.125 4.89264C431.48 4.78263 425.198 4.63481 418.164 4.56432C407.896 4.46136 405.144 4.37421 404.203 4.12193C403.459 3.92263 402.016 3.80686 400.251 3.80536C398.4 3.80365 397.048 3.68979 396.202 3.46443C395.503 3.27837 393.828 3.04574 392.48 2.94748C391.132 2.84922 389.694 2.66509 389.284 2.53821C388.875 2.41132 387.947 2.3075 387.222 2.3075C386.497 2.3075 384.931 2.11525 383.741 1.88027C381.648 1.46693 380.715 1.45305 354.822 1.45305C331.454 1.45305 327.905 1.4116 326.802 1.12494C325.077 0.676776 310.774 0.765429 308.879 1.23602C307.864 1.48808 307.468 1.49321 306.534 1.26678C305.897 1.11212 302.92 0.914956 299.656 0.81114C295.57 0.681263 293.561 0.531733 292.728 0.295477C291.34 -0.0986388 291.039 -0.0986327 289.638 0.296338ZM1564.46 75.7804C1576.78 75.9139 1581.71 76.0365 1582.25 76.2225C1582.66 76.3642 1584.73 76.5618 1586.84 76.6615C1588.95 76.7613 1591.25 76.989 1591.95 77.1678C1592.65 77.3464 1594 77.4952 1594.94 77.4984C1595.87 77.5016 1597.17 77.6469 1597.81 77.8212C1598.55 78.0199 1600.53 78.1867 1603.14 78.2681C1605.52 78.3426 1607.81 78.5257 1608.5 78.6964C1609.29 78.8931 1610.95 78.9946 1613.36 78.9946C1616.21 78.9946 1617.36 79.0824 1618.65 79.3983C1620.18 79.7719 1621.73 80.0958 1624.99 80.7157C1625.69 80.8496 1626.65 81.0416 1627.12 81.1425C1627.59 81.2433 1628.74 81.3298 1629.68 81.3349C1630.62 81.3401 1631.72 81.446 1632.13 81.5703C1632.54 81.6949 1633.79 81.8814 1634.9 81.9852C1636.01 82.089 1637.5 82.3238 1638.19 82.5068C1638.89 82.6899 1639.76 82.8396 1640.11 82.8396C1640.47 82.8396 1641.1 82.9381 1641.51 83.0584C1641.92 83.1786 1642.97 83.3769 1643.85 83.499C1644.73 83.621 1645.92 83.859 1646.5 84.028C1647.08 84.1967 1648.4 84.3349 1649.44 84.3349C1651.06 84.3349 1651.7 84.4535 1653.83 85.1548C1657.55 86.3792 1661.48 87.3255 1662.84 87.3255C1664.02 87.3255 1666.87 88.0155 1669.86 89.0297C1671.2 89.4873 1672.93 89.9717 1673.69 90.1065C1674.45 90.2411 1675.89 90.5291 1676.89 90.7461C1677.89 90.9631 1679.14 91.1917 1679.68 91.2538C1680.8 91.3831 1686.23 93.7168 1687.31 94.5328C1688.95 95.7739 1689.51 99.2983 1688.33 100.916C1687.99 101.371 1687.12 102.665 1686.38 103.791C1684.72 106.331 1683.2 107.578 1678.1 110.598C1677.01 111.247 1676.03 112.005 1675.68 112.482C1674.55 114.038 1673.99 114.506 1672.19 115.416C1671.19 115.922 1669.88 116.728 1669.27 117.208C1668.66 117.688 1667.61 118.381 1666.93 118.747C1666.25 119.113 1665.03 119.922 1664.21 120.543C1663.39 121.165 1662.09 121.984 1661.33 122.362C1660.57 122.741 1659.27 123.443 1658.45 123.922C1657.63 124.401 1656.42 125.057 1655.75 125.381C1655.09 125.705 1653.63 126.558 1652.51 127.276C1651.39 127.996 1649.76 128.861 1648.88 129.201C1648 129.54 1646.58 130.22 1645.73 130.713C1644.87 131.205 1643.78 131.834 1643.3 132.11C1642.82 132.387 1641.87 132.803 1641.2 133.035C1640.53 133.267 1638.91 133.975 1637.6 134.61C1636.29 135.244 1634.55 135.982 1633.73 136.251C1632.24 136.736 1631.15 137.2 1628.05 138.667C1625.55 139.845 1624.43 140.251 1622.94 140.506C1621.28 140.792 1619.98 141.256 1618.66 142.033C1616.78 143.143 1613.62 144.184 1611.63 144.351C1609.98 144.489 1609.62 144.601 1608.33 145.384C1606.61 146.417 1604.39 147.143 1601.01 147.776C1599.24 148.107 1597.97 148.502 1596.46 149.193C1593.86 150.382 1591.22 150.997 1587.9 151.187C1585.34 151.333 1585.34 151.333 1582.68 152.658C1579.52 154.227 1578.7 154.397 1574.19 154.399C1570.35 154.4 1568.47 154.786 1565.85 156.105C1562.46 157.813 1561.19 158.031 1554.68 158.031C1548.4 158.031 1547.41 158.194 1541.65 160.177C1540.35 160.625 1539.01 160.903 1537.49 161.04C1536.26 161.151 1534.5 161.385 1533.58 161.559C1532.25 161.812 1529.84 161.876 1521.85 161.876C1514.96 161.876 1511.57 161.952 1511.06 162.118C1510.65 162.251 1508.25 162.435 1505.73 162.527C1502.67 162.64 1500.76 162.806 1499.98 163.031C1499.33 163.216 1498.49 163.368 1498.09 163.369C1497.7 163.371 1496.79 163.54 1496.07 163.746C1494.1 164.307 1473.92 164.302 1471.92 163.74C1471.2 163.538 1469.95 163.371 1469.15 163.369C1468.35 163.368 1467.16 163.218 1466.52 163.036C1465.71 162.807 1463.96 162.669 1460.87 162.591C1458.12 162.521 1455.93 162.361 1455.19 162.177C1454.22 161.935 1451.38 161.876 1440.55 161.876C1428.23 161.876 1426.89 161.841 1424.28 161.451C1422.71 161.216 1420.81 161.025 1420.05 161.026C1418.53 161.028 1416.74 160.688 1413.02 159.694C1411.68 159.334 1409.76 158.951 1408.76 158.843C1407.76 158.735 1406.4 158.509 1405.74 158.339C1404.79 158.095 1402.69 158.031 1395.66 158.031C1388.71 158.031 1386.49 157.965 1385.46 157.725C1384.73 157.557 1383.03 157.167 1381.68 156.859C1380.34 156.552 1378.48 156.055 1377.57 155.755C1374.82 154.858 1371.87 154.594 1362.39 154.402C1352.69 154.206 1351.62 154.071 1348.11 152.595C1344.81 151.202 1344.75 151.196 1337.26 151.196C1333.19 151.196 1330.12 151.107 1329.68 150.976C1329.27 150.855 1328.23 150.665 1327.38 150.553C1325.61 150.322 1323.14 149.623 1321.92 149.008C1319.96 148.027 1317.28 147.588 1312.32 147.437C1307.19 147.282 1306.9 147.221 1300.69 145.011C1299.03 144.419 1298.65 144.366 1296.08 144.363C1292.86 144.36 1291.49 144.037 1288.65 142.614C1286.25 141.417 1283.45 140.721 1280.23 140.523C1278.76 140.433 1277.28 140.23 1276.92 140.071C1272.9 138.255 1273.11 135.31 1277.35 134.321C1279.3 133.864 1288.56 130.817 1290.67 129.937C1292.05 129.361 1294.01 128.693 1295.36 128.34C1295.89 128.202 1297.13 127.725 1298.13 127.278C1299.13 126.832 1300.61 126.32 1301.44 126.141C1302.26 125.961 1303.64 125.657 1304.51 125.464C1305.38 125.272 1307.26 124.595 1308.69 123.96C1310.48 123.168 1312.31 122.561 1314.54 122.026C1316.5 121.552 1318.46 120.925 1319.52 120.429C1321.82 119.348 1324.34 118.513 1325.31 118.513C1326.4 118.513 1328.88 117.632 1330.64 116.617C1331.8 115.945 1332.55 115.685 1334.05 115.438C1339.38 114.554 1339.41 114.545 1340.99 113.372C1342.87 111.977 1343.88 111.677 1346.71 111.677C1349.18 111.677 1350.37 111.285 1352.63 109.728C1354.13 108.694 1356.46 108.034 1359.3 107.839C1361.98 107.655 1363.01 107.336 1365.16 106.035C1366.63 105.142 1367.56 104.846 1368.9 104.84C1369.42 104.838 1370.38 104.695 1371.03 104.521C1371.67 104.348 1372.64 104.205 1373.18 104.203C1374.47 104.2 1375.25 103.908 1377.24 102.698C1379.2 101.506 1381.03 100.997 1383.36 100.997C1385.46 100.997 1387.33 100.452 1389.75 99.1385C1391 98.4626 1391.93 98.1198 1392.84 97.9965C1393.56 97.8996 1394.68 97.7218 1395.33 97.6018C1395.97 97.4817 1397.37 97.291 1398.45 97.1778C1400.02 97.0116 1400.74 96.8076 1402.19 96.1155C1404.55 94.985 1407.81 94.1626 1409.96 94.1562C1412.06 94.15 1415.9 93.2242 1418.37 92.129C1419.85 91.4698 1420.52 91.3053 1422.29 91.1613C1423.46 91.0661 1424.75 90.8849 1425.16 90.7589C1425.57 90.6329 1426.29 90.528 1426.76 90.5261C1428.17 90.5199 1430.36 89.9645 1432.68 89.0306C1434.44 88.3197 1435.27 88.1142 1436.99 87.9599C1438.17 87.855 1439.51 87.6716 1439.98 87.5524C1440.45 87.4332 1441.6 87.3332 1442.54 87.33C1443.76 87.3257 1445.02 87.1232 1447.01 86.6078C1448.54 86.2136 1450.55 85.7315 1451.49 85.5361C1452.43 85.3406 1453.91 85.0253 1454.79 84.8352C1455.67 84.6451 1457.69 84.4212 1459.27 84.3377C1460.85 84.2542 1462.77 84.0337 1463.53 83.8481C1464.29 83.6623 1465.68 83.3668 1466.62 83.1914C1468.98 82.7499 1470.73 82.4071 1471.74 82.1887C1472.21 82.0871 1473.21 81.9984 1473.98 81.992C1474.74 81.9854 1475.89 81.8382 1476.53 81.6648C1477.18 81.4913 1478.28 81.346 1478.98 81.3418C1479.69 81.3377 1480.98 81.1444 1481.85 80.912C1482.85 80.646 1484.11 80.491 1485.26 80.4927C1486.26 80.4942 1487.76 80.354 1488.58 80.1812C1493.04 79.2417 1494.1 79.1087 1498.17 78.9856C1500.51 78.9145 1502.96 78.7442 1503.6 78.6073C1504.25 78.4702 1507.51 78.2689 1510.85 78.1602C1516.09 77.9893 1517.25 77.8889 1519.27 77.4303C1521.02 77.0328 1522.56 76.8617 1525.34 76.7525C1527.39 76.6722 1529.61 76.4727 1530.26 76.3088C1531.06 76.1095 1533.49 75.9653 1537.62 75.8728C1541.01 75.7968 1544.16 75.6575 1544.63 75.5635C1545.1 75.4695 1545.92 75.4384 1546.44 75.4941C1546.97 75.5499 1555.08 75.6787 1564.46 75.7804ZM444.747 254.824C445.132 254.941 446.38 255.123 447.521 255.229C448.662 255.334 450.095 255.569 450.704 255.75C451.313 255.931 452.25 256.08 452.787 256.08C453.323 256.08 454.097 256.178 454.507 256.298C454.916 256.418 456.162 256.656 457.276 256.827C458.39 256.999 459.636 257.237 460.045 257.357C460.503 257.491 464.501 257.575 470.407 257.575C476.299 257.575 480.469 257.662 481.173 257.801C481.804 257.925 483.615 258.165 485.198 258.334C488.643 258.702 489.607 258.883 493.084 259.815C494.942 260.312 496.432 260.565 498.007 260.65C499.249 260.717 500.957 260.917 501.804 261.096C502.99 261.346 504.842 261.42 509.883 261.417C517.004 261.414 516.345 261.339 523.351 262.951C525.402 263.423 527.676 263.945 528.404 264.11C529.283 264.31 531.069 264.412 533.732 264.414C536.378 264.416 538.172 264.518 539.017 264.713C539.72 264.876 540.823 265.075 541.468 265.155C542.113 265.235 543.168 265.428 543.813 265.583C544.457 265.738 545.439 265.928 545.995 266.005C546.551 266.082 547.824 266.422 548.824 266.761C551.718 267.742 554.585 268.256 557.157 268.256C559.335 268.256 559.589 268.306 562.551 269.311C566.329 270.594 568.847 271.246 570.024 271.246C576.236 271.246 576.04 275.985 569.76 277.633C568.326 278.01 566.289 278.594 565.234 278.933C564.179 279.271 562.404 279.762 561.291 280.024C558.206 280.75 555.099 281.576 551.814 282.545C549.866 283.119 548.419 283.422 547.627 283.422C546.198 283.422 543.484 284.111 539.656 285.446C538.132 285.978 536.546 286.413 536.131 286.413C535.716 286.413 534.805 286.563 534.106 286.747C533.407 286.931 532.143 287.16 531.297 287.257C530.144 287.388 529.262 287.674 527.78 288.395C524.813 289.838 523.249 290.257 520.824 290.26C518.381 290.263 517.033 290.59 514.677 291.749C511.844 293.143 509.675 293.651 504.703 294.083C502.674 294.26 502.425 294.334 501.16 295.134C498.926 296.546 496.964 297.093 494.113 297.098C491.492 297.103 489.613 297.58 487.997 298.651C485.797 300.109 483.602 300.701 479.655 300.903C476.777 301.05 476.777 301.05 474.042 302.409C471.37 303.736 471.254 303.771 469.034 303.941C467.784 304.037 466.473 304.214 466.122 304.334C465.77 304.454 464.771 304.647 463.903 304.762C462.913 304.893 461.919 305.19 461.239 305.557C457.766 307.43 456.593 307.774 453.69 307.774C451.25 307.774 448.527 308.457 445.87 309.735C444.485 310.401 443.675 310.641 442.311 310.793C441.339 310.9 440.4 311.032 440.224 311.085C440.049 311.138 438.946 311.327 437.773 311.506C436.185 311.749 434.801 312.165 432.338 313.139C429.084 314.427 428.993 314.449 426.263 314.61C423.332 314.783 423.024 314.864 419.025 316.526C417.766 317.049 416.291 317.489 415.402 317.606C414.576 317.715 413.565 317.898 413.155 318.014C412.745 318.129 411.498 318.316 410.384 318.428C409.2 318.548 407.917 318.825 407.294 319.094C406.707 319.348 405.029 319.839 403.564 320.186C402.098 320.533 400.365 320.959 399.713 321.131C399.061 321.304 398.022 321.445 397.404 321.445C396.755 321.445 395.618 321.675 394.709 321.99C392.302 322.822 386.472 324.435 385.869 324.436C385.172 324.436 380.213 325.563 378.337 326.148C377.534 326.398 376.095 326.688 375.14 326.792C374.185 326.896 372.492 327.236 371.379 327.548C370.265 327.86 368.934 328.2 368.421 328.304C367.908 328.407 366.588 328.781 365.488 329.134C364.388 329.487 363.177 329.779 362.797 329.781C362.418 329.784 361.723 329.881 361.254 329.996C360.785 330.112 359.436 330.347 358.255 330.519C357.074 330.692 354.772 331.263 353.14 331.789C351.507 332.315 349.547 332.848 348.785 332.973C348.023 333.098 347.016 333.292 346.547 333.406C346.078 333.519 344.944 333.613 344.025 333.616C342.664 333.621 342.054 333.743 340.722 334.28C336.063 336.156 334.285 336.612 331.634 336.612C328.396 336.612 325.584 337.291 323.018 338.693C321.224 339.673 321.224 339.673 318.113 339.833C313.684 340.062 311.619 340.472 309.167 341.612C306.253 342.966 305.034 343.246 301.148 343.451C296.697 343.686 294.788 344.097 292.588 345.293C291.378 345.95 290.342 346.332 289.178 346.547C288.259 346.717 287.123 346.952 286.654 347.069C286.185 347.186 284.171 347.286 282.178 347.29C278.248 347.297 277.835 347.395 275.523 348.857C273.787 349.955 272.468 350.232 268.217 350.39C263.554 350.563 261.712 350.945 259.052 352.293C255.648 354.017 255.122 354.128 250.351 354.128C245.566 354.128 245.338 354.172 241.265 355.887C238.92 356.875 238.526 356.974 236.273 357.142C234.928 357.243 233.293 357.423 232.639 357.543C231.985 357.663 230.298 357.846 228.892 357.949C226.187 358.147 225.161 358.433 221.432 360.026C219.513 360.846 219.513 360.846 215.464 360.971C211.242 361.101 209.197 361.476 207.213 362.485C205.1 363.558 200.326 364.252 192.674 364.596C189.986 364.717 187.253 364.949 186.599 365.112C185.945 365.275 185.026 365.473 184.558 365.552C184.089 365.632 182.698 365.966 181.467 366.296C174.129 368.259 172.438 368.316 169.631 366.698C168.697 366.159 167.241 365.37 166.397 364.946C163.586 363.531 163.024 362.821 162.2 359.643C161.915 358.544 161.194 356.599 160.598 355.322C159.255 352.449 159.253 352.141 160.545 349.267C161.112 348.005 161.749 346.443 161.96 345.797C162.773 343.302 165.11 339.821 167.843 337.032C172.147 332.641 176.224 328.264 176.745 327.477C177.639 326.122 191.136 312.736 192.977 311.376C193.856 310.727 194.719 310.021 194.895 309.807C195.07 309.593 195.742 309.028 196.387 308.551C197.032 308.073 198.135 307.148 198.838 306.493C199.542 305.838 200.597 304.979 201.183 304.583C201.769 304.187 203.064 303.267 204.06 302.539C205.057 301.811 206.361 300.953 206.958 300.634C207.555 300.314 208.61 299.588 209.303 299.02C209.995 298.453 211.389 297.558 212.402 297.032C213.414 296.506 214.757 295.694 215.386 295.228C216.015 294.762 217.105 294.058 217.808 293.665C218.511 293.271 219.925 292.4 220.948 291.728C221.972 291.057 223.171 290.39 223.613 290.247C224.856 289.844 226.015 289.221 227.271 288.281C227.954 287.77 229.251 287.124 230.468 286.69C231.594 286.288 233.39 285.488 234.459 284.912C235.529 284.335 237.447 283.513 238.722 283.084C239.998 282.656 242.126 281.787 243.452 281.154C244.779 280.521 246.745 279.755 247.822 279.452C248.899 279.149 252.186 278.096 255.126 277.112C260.388 275.351 261.848 274.941 265.02 274.335C265.899 274.167 267.194 273.788 267.897 273.494C271.021 272.185 273.656 271.439 275.783 271.259C277.539 271.111 278.422 270.892 280.792 270.017C284.3 268.722 286.408 268.216 291.236 267.509C292.35 267.346 293.789 266.981 294.434 266.699C295.775 266.112 296.58 265.898 300.712 265.033C303.101 264.533 304.233 264.41 306.466 264.405C309.512 264.399 309.535 264.394 314.363 262.47C316.707 261.535 316.707 261.535 322.142 261.409C328.221 261.268 330.275 260.937 334.718 259.385C336.428 258.788 337.509 258.557 339.301 258.406C340.59 258.298 342.316 258.095 343.137 257.956C343.992 257.811 348.176 257.647 352.942 257.572C359.574 257.468 361.599 257.369 362.96 257.079C363.897 256.879 365.336 256.572 366.157 256.395C366.977 256.219 368.069 256.076 368.582 256.077C369.096 256.079 370.247 255.894 371.14 255.668C372.033 255.442 373.292 255.13 373.936 254.975C376.261 254.418 442.948 254.275 444.747 254.824ZM1395.93 327.084C1396.6 327.248 1398.14 327.44 1399.37 327.511C1400.61 327.581 1402.28 327.778 1403.11 327.947C1405.41 328.421 1406.82 328.69 1408.33 328.944C1409.09 329.072 1410.31 329.311 1411.04 329.476C1411.76 329.641 1413.28 329.776 1414.42 329.776C1416.54 329.776 1419.36 330.327 1422.07 331.27C1423.48 331.758 1427.23 332.691 1430.71 333.418C1432.32 333.756 1433.63 334.211 1435.4 335.057C1436.74 335.701 1438.23 336.376 1438.7 336.558C1440.78 337.365 1442.79 339.376 1444.01 341.873C1444.41 342.68 1445.17 343.991 1445.7 344.786C1447.54 347.508 1447.42 349.02 1444.99 353.86C1441.87 360.109 1437.19 364.642 1430.28 368.117C1429.87 368.323 1428.76 368.958 1427.81 369.528C1426.86 370.098 1424.94 371.011 1423.55 371.557C1422.15 372.104 1420.06 373.02 1418.89 373.593C1417.7 374.18 1416.48 374.635 1416.1 374.635C1415.72 374.635 1414.85 374.814 1414.16 375.034C1410.94 376.06 1405.53 376.984 1402.73 376.987C1401.3 376.989 1399.86 377.117 1399.16 377.305C1398.41 377.507 1396.98 377.622 1395.18 377.623C1393.11 377.625 1391.9 377.738 1390.6 378.051C1389.62 378.285 1388.17 378.478 1387.36 378.479C1386.56 378.479 1385.36 378.615 1384.7 378.779C1384.04 378.943 1382.25 379.141 1380.73 379.219C1379.21 379.297 1377.31 379.499 1376.51 379.668C1374.8 380.028 1328.08 380.106 1325.2 379.754C1324.32 379.646 1321.64 379.453 1319.23 379.324C1316.83 379.195 1314.27 378.953 1313.54 378.785C1312.81 378.617 1311.55 378.48 1310.74 378.48C1309.93 378.48 1308.18 378.289 1306.84 378.055C1305.51 377.821 1303.52 377.629 1302.42 377.628C1301.33 377.627 1299.89 377.49 1299.23 377.324C1298.57 377.159 1296.25 376.956 1294.08 376.875C1291.91 376.794 1289.43 376.593 1288.57 376.429C1287.71 376.265 1286.24 376.13 1285.3 376.13C1284.36 376.13 1283.05 375.996 1282.39 375.831C1281.73 375.666 1280.51 375.47 1279.68 375.394C1278.85 375.319 1277.65 375.119 1277.02 374.949C1276.38 374.779 1274.99 374.638 1273.94 374.635C1272.88 374.632 1271.52 374.496 1270.9 374.331C1270.29 374.167 1268.94 373.967 1267.92 373.887C1266.89 373.808 1265.51 373.607 1264.85 373.441C1264.19 373.275 1263.08 373.14 1262.39 373.14C1261.7 373.14 1260.6 373 1259.94 372.828C1259.28 372.657 1258.04 372.422 1257.18 372.307C1255.53 372.086 1253.08 371.614 1250.91 371.097C1250.1 370.906 1248.45 370.788 1246.54 370.785C1242.91 370.78 1242.07 370.519 1241.02 369.065C1239.37 366.776 1240.49 365.215 1245.08 363.404C1246.18 362.97 1247.61 362.353 1248.26 362.033C1248.9 361.713 1250.07 361.239 1250.85 360.98C1251.64 360.722 1252.86 360.136 1253.56 359.678C1255.36 358.516 1255.96 358.226 1258.04 357.51C1259.05 357.165 1260.4 356.563 1261.04 356.172C1262.97 355.003 1264.3 354.393 1265.74 354.021C1267.2 353.642 1267.9 353.32 1269.89 352.112C1270.59 351.687 1272.06 351.05 1273.16 350.699C1275.51 349.942 1276.55 349.44 1277.53 348.572C1278.39 347.818 1279.55 347.294 1280.38 347.288C1281.45 347.281 1284.93 346.272 1285.65 345.762C1288.73 343.568 1288.59 343.636 1290.72 343.452C1292.84 343.27 1293.37 343.075 1295.92 341.51C1297.35 340.63 1299.83 339.819 1301.11 339.812C1302.59 339.803 1304.5 339.25 1305.78 338.457C1307.6 337.334 1309.21 336.831 1311.67 336.613C1313.86 336.418 1316.23 335.676 1318.76 334.393C1319.49 334.023 1320.5 333.745 1321.64 333.606C1322.6 333.488 1323.53 333.349 1323.71 333.298C1323.88 333.247 1325.02 333.057 1326.24 332.875C1327.45 332.694 1329.77 332.114 1331.37 331.587C1332.98 331.06 1335.01 330.535 1335.88 330.421C1336.75 330.307 1338.03 330.115 1338.74 329.996C1339.44 329.877 1340.73 329.78 1341.61 329.78C1343.15 329.782 1344.48 329.555 1348.05 328.682C1348.96 328.462 1350.35 328.279 1351.15 328.276C1351.94 328.273 1353.3 328.081 1354.17 327.849C1355.05 327.617 1356.2 327.425 1356.73 327.423C1357.27 327.42 1358.18 327.285 1358.77 327.121C1360.35 326.68 1394.17 326.646 1395.93 327.084ZM602.427 522.282C605.213 522.537 606.163 522.573 607.756 522.488C611.442 522.289 619.662 522.915 622.783 523.63C624.541 524.034 626.891 524.551 628.005 524.78C629.119 525.009 630.749 525.35 631.628 525.537C632.797 525.787 634.391 525.878 637.561 525.876C642.238 525.873 642.952 525.983 647.294 527.374C650.166 528.294 652.583 528.864 653.618 528.865C654.126 528.866 655.5 529.013 656.673 529.193C657.845 529.373 659.907 529.605 661.255 529.707C663.347 529.867 664.042 530.023 665.992 530.771C668.248 531.635 671.073 532.331 673.888 532.715C678.976 533.409 678.071 538.431 672.659 539.544C670.685 539.95 669.275 540.551 668.107 541.482C666.793 542.531 665.098 543.136 662.825 543.368C661.493 543.504 660.812 543.701 659.894 544.215C659.236 544.583 658.169 545.181 657.524 545.542C656.601 546.06 655.953 546.239 654.487 546.383C652.293 546.6 650.473 547.185 648.752 548.229C646.102 549.836 645.506 550.055 643.321 550.227C641.577 550.365 641.062 550.496 640.062 551.055C639.409 551.421 638.372 552.003 637.756 552.348C637.141 552.693 636.062 553.073 635.358 553.192C630.558 554.004 629.093 554.384 626.661 555.445C625.435 555.981 623.772 556.579 622.967 556.774C619.033 557.731 615.825 558.656 614.519 559.21C613.726 559.547 611.999 560.075 610.683 560.385C609.366 560.694 606.419 561.555 604.133 562.298C601.847 563.041 598.8 563.946 597.362 564.309C595.924 564.673 593.404 565.401 591.762 565.928C590.12 566.456 588.502 566.887 588.165 566.887C587.828 566.887 586.464 567.213 585.132 567.612C583.801 568.01 581.657 568.551 580.367 568.813C579.077 569.076 576.153 569.918 573.869 570.685C571.584 571.452 569.139 572.147 568.434 572.229C565.044 572.626 562.848 573.173 559.52 574.449C557.597 575.187 554.623 575.832 552.099 576.059C550.361 576.215 549.596 576.422 547.09 577.418C543.131 578.99 542.826 579.06 539.87 579.064C536.881 579.069 534.826 579.547 531.67 580.971C530.357 581.563 529.192 581.92 528.083 582.069C527.18 582.19 525.573 582.428 524.511 582.598C523.449 582.769 521.962 582.908 521.207 582.909C519.387 582.911 518.588 583.153 515.678 584.585C513.226 585.792 513.226 585.792 508.644 585.923C503.218 586.079 501.624 586.411 499.196 587.891C496.865 589.312 495.429 589.589 489.674 589.726C484.452 589.85 484.452 589.85 481.651 591.2C478.073 592.924 475.869 593.237 470.094 592.845C467.119 592.643 467.087 592.63 463.704 590.336C457.945 586.431 455.838 577.965 459.471 573.327C459.991 572.663 460.803 571.348 461.277 570.404C462.204 568.555 468.271 562.081 471.298 559.712C472.035 559.135 473.445 558.038 474.433 557.274C475.42 556.511 476.544 555.586 476.93 555.22C477.315 554.853 478.501 553.973 479.564 553.264C480.628 552.555 482.546 551.048 483.827 549.914C485.674 548.281 486.64 547.611 488.485 546.685C489.766 546.042 491.226 545.178 491.73 544.764C492.623 544.03 493.452 543.611 495.451 542.881C495.991 542.684 497.094 542.078 497.902 541.533C499.371 540.544 500.603 539.931 502.522 539.234C503.082 539.03 503.995 538.503 504.551 538.063C505.982 536.929 506.257 536.808 509.02 536.094C511.717 535.397 512.609 535.005 514.427 533.721C515.477 532.98 515.838 532.852 517.304 532.697C519.159 532.502 520.724 532.028 521.859 531.317C523.429 530.332 524.506 529.895 526.085 529.603C526.985 529.436 528.104 529.204 528.573 529.087C529.042 528.97 529.967 528.872 530.629 528.869C532.143 528.862 534.183 528.235 536.779 526.979C538.804 525.998 538.804 525.998 542.64 525.849C546.543 525.698 546.977 525.623 550.994 524.415C552.188 524.055 553.771 523.702 554.51 523.63C555.25 523.558 556.479 523.363 557.241 523.196C558.003 523.03 560.497 522.783 562.783 522.648C565.069 522.513 567.898 522.335 569.07 522.254C572.815 521.993 599.519 522.015 602.427 522.282Z" fill="#006C87"/>
</svg>
